<svg xmlns="http://www.w3.org/2000/svg" viewBox="0 0 1080 1080" width="1080" height="1080"><rect width="1080" height="1080" fill="#050B1C"/><rect width="1080" height="1080" fill="#00113A" opacity=".85"/><rect x="0" y="0" width="1" height="1080" fill="#FFFFFC" opacity=".035"/><rect x="0" y="0" width="1080" height="1" fill="#FFFFFC" opacity=".035"/><rect x="60" y="0" width="1" height="1080" fill="#FFFFFC" opacity=".035"/><rect x="0" y="60" width="1080" height="1" fill="#FFFFFC" opacity=".035"/><rect x="120" y="0" width="1" height="1080" fill="#FFFFFC" opacity=".035"/><rect x="0" y="120" width="1080" height="1" fill="#FFFFFC" opacity=".035"/><rect x="180" y="0" width="1" height="1080" fill="#FFFFFC" opacity=".035"/><rect x="0" y="180" width="1080" height="1" fill="#FFFFFC" opacity=".035"/><rect x="240" y="0" width="1" height="1080" fill="#FFFFFC" opacity=".035"/><rect x="0" y="240" width="1080" height="1" fill="#FFFFFC" opacity=".035"/><rect x="300" y="0" width="1" height="1080" fill="#FFFFFC" opacity=".035"/><rect x="0" y="300" width="1080" height="1" fill="#FFFFFC" opacity=".035"/><rect x="360" y="0" width="1" height="1080" fill="#FFFFFC" opacity=".035"/><rect x="0" y="360" width="1080" height="1" fill="#FFFFFC" opacity=".035"/><rect x="420" y="0" width="1" height="1080" fill="#FFFFFC" opacity=".035"/><rect x="0" y="420" width="1080" height="1" fill="#FFFFFC" opacity=".035"/><rect x="480" y="0" width="1" height="1080" fill="#FFFFFC" opacity=".035"/><rect x="0" y="480" width="1080" height="1" fill="#FFFFFC" opacity=".035"/><rect x="540" y="0" width="1" height="1080" fill="#FFFFFC" opacity=".035"/><rect x="0" y="540" width="1080" height="1" fill="#FFFFFC" opacity=".035"/><rect x="600" y="0" width="1" height="1080" fill="#FFFFFC" opacity=".035"/><rect x="0" y="600" width="1080" height="1" fill="#FFFFFC" opacity=".035"/><rect x="660" y="0" width="1" height="1080" fill="#FFFFFC" opacity=".035"/><rect x="0" y="660" width="1080" height="1" fill="#FFFFFC" opacity=".035"/><rect x="720" y="0" width="1" height="1080" fill="#FFFFFC" opacity=".035"/><rect x="0" y="720" width="1080" height="1" fill="#FFFFFC" opacity=".035"/><rect x="780" y="0" width="1" height="1080" fill="#FFFFFC" opacity=".035"/><rect x="0" y="780" width="1080" height="1" fill="#FFFFFC" opacity=".035"/><rect x="840" y="0" width="1" height="1080" fill="#FFFFFC" opacity=".035"/><rect x="0" y="840" width="1080" height="1" fill="#FFFFFC" opacity=".035"/><rect x="900" y="0" width="1" height="1080" fill="#FFFFFC" opacity=".035"/><rect x="0" y="900" width="1080" height="1" fill="#FFFFFC" opacity=".035"/><rect x="960" y="0" width="1" height="1080" fill="#FFFFFC" opacity=".035"/><rect x="0" y="960" width="1080" height="1" fill="#FFFFFC" opacity=".035"/><rect x="1020" y="0" width="1" height="1080" fill="#FFFFFC" opacity=".035"/><rect x="0" y="1020" width="1080" height="1" fill="#FFFFFC" opacity=".035"/><circle cx="778" cy="389" r="210" fill="none" stroke="#D5A507" stroke-width="2" opacity=".28"/><circle cx="778" cy="389" r="130" fill="none" stroke="#D5A507" stroke-width="2" opacity=".45"/><circle cx="778" cy="389" r="9" fill="#D5A507"/><rect x="64" y="86" width="353" height="56" fill="#D5A507"/><g fill="#00113A" transform="translate(90.0,124.0)"><path transform="translate(0.00,0) scale(0.030000,-0.030000)" d="M605.0 0.0H80.0V700.0H595.0V567.0H233.0V422.0H545.0V298.0H233.0V132.0H605.0Z"/><path transform="translate(24.90,0) scale(0.030000,-0.030000)" d="M85.0 0.0V700.0H242.0V0.0Z"/><path transform="translate(40.11,0) scale(0.030000,-0.030000)" d="M561.0 0.0 229.0 472.0V0.0H80.0V700.0H238.0L561.0 240.0V700.0H710.0V0.0Z"/><path transform="translate(69.21,0) scale(0.030000,-0.030000)" d="M340.0 419.0Q540.0 341.0 540.0 200.0Q540.0 110.0 470.0 50.0Q400.0 -10.0 287.0 -10.0Q238.0 -10.0 192.5 1.0Q147.0 12.0 117.0 27.0Q87.0 42.0 64.0 57.5Q41.0 73.0 30.0 84.0L20.0 95.0L110.0 192.0Q113.0 189.0 119.0 183.5Q125.0 178.0 144.0 164.5Q163.0 151.0 183.5 141.0Q204.0 131.0 234.5 122.5Q265.0 114.0 295.0 114.0Q334.0 114.0 359.0 133.5Q384.0 153.0 384.0 183.0Q384.0 218.0 350.0 245.5Q316.0 273.0 225.0 310.0Q58.0 375.0 58.0 511.0Q58.0 598.0 125.0 654.0Q192.0 710.0 301.0 710.0Q344.0 710.0 384.0 700.5Q424.0 691.0 450.5 678.0Q477.0 665.0 498.0 652.0Q519.0 639.0 528.0 630.0L538.0 620.0L448.0 523.0Q441.0 530.0 429.0 540.5Q417.0 551.0 379.5 568.5Q342.0 586.0 303.0 586.0Q261.0 586.0 237.5 567.0Q214.0 548.0 214.0 523.0Q214.0 492.0 240.5 469.5Q267.0 447.0 340.0 419.0Z"/><path transform="translate(92.16,0) scale(0.030000,-0.030000)" d="M356.0 525.0 258.0 268.0H453.0ZM436.0 700.0 720.0 0.0H552.0L496.0 147.0H216.0L160.0 0.0H0.0L284.0 700.0Z"/><path transform="translate(119.16,0) scale(0.030000,-0.030000)" d="M575.0 567.0H371.0V0.0H219.0V567.0H15.0V700.0H575.0Z"/><path transform="translate(142.26,0) scale(0.030000,-0.030000)" d="M630.0 0.0H50.0V111.0L425.0 571.0H70.0V700.0H630.0V589.0L255.0 129.0H630.0Z"/><path transform="translate(181.77,0) scale(0.030000,-0.030000)" d="M575.0 0.0H80.0V700.0H233.0V136.0H575.0Z"/><path transform="translate(204.87,0) scale(0.030000,-0.030000)" d="M356.0 525.0 258.0 268.0H453.0ZM436.0 700.0 720.0 0.0H552.0L496.0 147.0H216.0L160.0 0.0H0.0L284.0 700.0ZM547.0 840.0Q547.0 808.0 524.5 785.5Q502.0 763.0 470.0 763.0Q437.0 763.0 415.5 784.5Q394.0 806.0 394.0 839.0Q394.0 872.0 416.0 894.0Q438.0 916.0 471.0 916.0Q504.0 916.0 525.5 894.5Q547.0 873.0 547.0 840.0ZM326.0 840.0Q326.0 808.0 303.5 785.5Q281.0 763.0 249.0 763.0Q216.0 763.0 194.5 784.5Q173.0 806.0 173.0 839.0Q173.0 872.0 195.0 894.0Q217.0 916.0 250.0 916.0Q283.0 916.0 304.5 894.5Q326.0 873.0 326.0 840.0Z"/><path transform="translate(231.87,0) scale(0.030000,-0.030000)" d="M520.0 700.0H670.0V290.0Q670.0 156.0 586.0 73.0Q502.0 -10.0 368.0 -10.0Q233.0 -10.0 151.5 70.5Q70.0 151.0 70.0 285.0V700.0H225.0V290.0Q225.0 218.0 266.0 174.0Q307.0 130.0 373.0 130.0Q439.0 130.0 479.5 174.0Q520.0 218.0 520.0 290.0Z"/><path transform="translate(259.47,0) scale(0.030000,-0.030000)" d="M535.0 262.0H233.0V0.0H80.0V700.0H585.0V567.0H233.0V391.0H535.0Z"/><path transform="translate(283.17,0) scale(0.030000,-0.030000)" d="M575.0 567.0H371.0V0.0H219.0V567.0H15.0V700.0H575.0Z"/></g><g fill="#FFFFFC" transform="translate(64.0,330.0)"><path transform="translate(0.00,0) scale(0.096000,-0.096000)" d="M270.0 0.0 0.0 700.0H215.0L370.0 248.0L525.0 700.0H730.0L460.0 0.0Z"/><path transform="translate(71.04,0) scale(0.096000,-0.096000)" d="M493.0 700.0H680.0V293.0Q680.0 156.0 593.5 73.0Q507.0 -10.0 367.0 -10.0Q227.0 -10.0 143.5 70.0Q60.0 150.0 60.0 287.0V700.0H253.0V295.0Q253.0 235.0 285.5 200.0Q318.0 165.0 373.0 165.0Q428.0 165.0 460.5 200.0Q493.0 235.0 493.0 295.0Z"/><path transform="translate(172.03,0) scale(0.096000,-0.096000)" d="M510.0 0.0 260.0 333.0V0.0H70.0V700.0H260.0V387.0L490.0 700.0H715.0L445.0 370.0L735.0 0.0Z"/><path transform="translate(242.59,0) scale(0.096000,-0.096000)" d="M580.0 0.0H70.0V700.0H260.0V170.0H580.0Z"/><path transform="translate(300.19,0) scale(0.096000,-0.096000)" d="M610.0 0.0H70.0V700.0H600.0V535.0H260.0V435.0H550.0V280.0H260.0V165.0H610.0Z"/><path transform="translate(363.55,0) scale(0.096000,-0.096000)" d="M395.0 100.0 253.0 381.0V0.0H70.0V700.0H265.0L450.0 334.0L635.0 700.0H820.0V0.0H637.0V381.0L495.0 100.0Z"/><path transform="translate(449.95,0) scale(0.096000,-0.096000)" d="M395.0 100.0 253.0 381.0V0.0H70.0V700.0H265.0L450.0 334.0L635.0 700.0H820.0V0.0H637.0V381.0L495.0 100.0Z"/><path transform="translate(536.35,0) scale(0.096000,-0.096000)" d="M580.0 535.0H390.0V0.0H200.0V535.0H10.0V700.0H580.0Z"/></g><g fill="#D5A507" transform="translate(64.0,388.0)"><path transform="translate(0.00,0) scale(0.032000,-0.032000)" d="M368.0 571.0H233.0V347.0H368.0Q424.0 347.0 458.5 378.5Q493.0 410.0 493.0 459.0Q493.0 508.0 458.5 539.5Q424.0 571.0 368.0 571.0ZM80.0 0.0V700.0H383.0Q501.0 700.0 573.0 634.5Q645.0 569.0 645.0 463.0Q645.0 358.0 570.5 290.0Q496.0 222.0 378.0 222.0H233.0V0.0Z"/><path transform="translate(27.04,0) scale(0.032000,-0.032000)" d="M374.0 571.0H233.0V359.0H374.0Q429.0 359.0 461.0 388.5Q493.0 418.0 493.0 465.0Q493.0 512.0 461.0 541.5Q429.0 571.0 374.0 571.0ZM80.0 0.0V700.0H393.0Q505.0 700.0 575.0 637.0Q645.0 574.0 645.0 473.0Q645.0 399.0 605.5 343.0Q566.0 287.0 498.0 262.0L675.0 0.0H498.0L341.0 241.0H233.0V0.0Z"/><path transform="translate(54.56,0) scale(0.032000,-0.032000)" d="M85.0 0.0V700.0H242.0V0.0Z"/><path transform="translate(70.14,0) scale(0.032000,-0.032000)" d="M405.0 105.0 227.0 441.0V0.0H80.0V700.0H237.0L449.0 294.0L661.0 700.0H810.0V0.0H663.0V441.0L485.0 105.0Z"/><path transform="translate(103.74,0) scale(0.032000,-0.032000)" d="M356.0 525.0 258.0 268.0H453.0ZM436.0 700.0 720.0 0.0H552.0L496.0 147.0H216.0L160.0 0.0H0.0L284.0 700.0ZM547.0 840.0Q547.0 808.0 524.5 785.5Q502.0 763.0 470.0 763.0Q437.0 763.0 415.5 784.5Q394.0 806.0 394.0 839.0Q394.0 872.0 416.0 894.0Q438.0 916.0 471.0 916.0Q504.0 916.0 525.5 894.5Q547.0 873.0 547.0 840.0ZM326.0 840.0Q326.0 808.0 303.5 785.5Q281.0 763.0 249.0 763.0Q216.0 763.0 194.5 784.5Q173.0 806.0 173.0 839.0Q173.0 872.0 195.0 894.0Q217.0 916.0 250.0 916.0Q283.0 916.0 304.5 894.5Q326.0 873.0 326.0 840.0Z"/><path transform="translate(131.90,0) scale(0.032000,-0.032000)" d="M374.0 571.0H233.0V359.0H374.0Q429.0 359.0 461.0 388.5Q493.0 418.0 493.0 465.0Q493.0 512.0 461.0 541.5Q429.0 571.0 374.0 571.0ZM80.0 0.0V700.0H393.0Q505.0 700.0 575.0 637.0Q645.0 574.0 645.0 473.0Q645.0 399.0 605.5 343.0Q566.0 287.0 498.0 262.0L675.0 0.0H498.0L341.0 241.0H233.0V0.0Z"/><path transform="translate(159.42,0) scale(0.032000,-0.032000)" d="M605.0 0.0H80.0V700.0H595.0V567.0H233.0V422.0H545.0V298.0H233.0V132.0H605.0Z"/><path transform="translate(185.34,0) scale(0.032000,-0.032000)" d="M85.0 0.0V700.0H242.0V0.0Z"/><path transform="translate(200.93,0) scale(0.032000,-0.032000)" d="M561.0 0.0 229.0 472.0V0.0H80.0V700.0H238.0L561.0 240.0V700.0H710.0V0.0Z"/><path transform="translate(231.33,0) scale(0.032000,-0.032000)" d="M340.0 419.0Q540.0 341.0 540.0 200.0Q540.0 110.0 470.0 50.0Q400.0 -10.0 287.0 -10.0Q238.0 -10.0 192.5 1.0Q147.0 12.0 117.0 27.0Q87.0 42.0 64.0 57.5Q41.0 73.0 30.0 84.0L20.0 95.0L110.0 192.0Q113.0 189.0 119.0 183.5Q125.0 178.0 144.0 164.5Q163.0 151.0 183.5 141.0Q204.0 131.0 234.5 122.5Q265.0 114.0 295.0 114.0Q334.0 114.0 359.0 133.5Q384.0 153.0 384.0 183.0Q384.0 218.0 350.0 245.5Q316.0 273.0 225.0 310.0Q58.0 375.0 58.0 511.0Q58.0 598.0 125.0 654.0Q192.0 710.0 301.0 710.0Q344.0 710.0 384.0 700.5Q424.0 691.0 450.5 678.0Q477.0 665.0 498.0 652.0Q519.0 639.0 528.0 630.0L538.0 620.0L448.0 523.0Q441.0 530.0 429.0 540.5Q417.0 551.0 379.5 568.5Q342.0 586.0 303.0 586.0Q261.0 586.0 237.5 567.0Q214.0 548.0 214.0 523.0Q214.0 492.0 240.5 469.5Q267.0 447.0 340.0 419.0Z"/><path transform="translate(255.17,0) scale(0.032000,-0.032000)" d="M356.0 525.0 258.0 268.0H453.0ZM436.0 700.0 720.0 0.0H552.0L496.0 147.0H216.0L160.0 0.0H0.0L284.0 700.0Z"/><path transform="translate(283.33,0) scale(0.032000,-0.032000)" d="M575.0 567.0H371.0V0.0H219.0V567.0H15.0V700.0H575.0Z"/><path transform="translate(307.33,0) scale(0.032000,-0.032000)" d="M630.0 0.0H50.0V111.0L425.0 571.0H70.0V700.0H630.0V589.0L255.0 129.0H630.0Z"/></g><rect x="64" y="486" width="3" height="56" fill="#D5A507"/><g fill="#FFFFFC" opacity=".55" transform="translate(92.0,512.0)"><path transform="translate(0.00,0) scale(0.024000,-0.024000)" d="M535.0 262.0H233.0V0.0H80.0V700.0H585.0V567.0H233.0V391.0H535.0Z"/><path transform="translate(18.48,0) scale(0.024000,-0.024000)" d="M520.0 700.0H670.0V290.0Q670.0 156.0 586.0 73.0Q502.0 -10.0 368.0 -10.0Q233.0 -10.0 151.5 70.5Q70.0 151.0 70.0 285.0V700.0H225.0V290.0Q225.0 218.0 266.0 174.0Q307.0 130.0 373.0 130.0Q439.0 130.0 479.5 174.0Q520.0 218.0 520.0 290.0Z"/><path transform="translate(40.08,0) scale(0.024000,-0.024000)" d="M561.0 0.0 229.0 472.0V0.0H80.0V700.0H238.0L561.0 240.0V700.0H710.0V0.0Z"/><path transform="translate(62.88,0) scale(0.024000,-0.024000)" d="M528.0 0.0 233.0 339.0V0.0H80.0V700.0H233.0V381.0L508.0 700.0H693.0L385.0 368.0L713.0 0.0Z"/><path transform="translate(83.71,0) scale(0.024000,-0.024000)" d="M374.0 571.0H233.0V359.0H374.0Q429.0 359.0 461.0 388.5Q493.0 418.0 493.0 465.0Q493.0 512.0 461.0 541.5Q429.0 571.0 374.0 571.0ZM80.0 0.0V700.0H393.0Q505.0 700.0 575.0 637.0Q645.0 574.0 645.0 473.0Q645.0 399.0 605.5 343.0Q566.0 287.0 498.0 262.0L675.0 0.0H498.0L341.0 241.0H233.0V0.0Z"/><path transform="translate(104.35,0) scale(0.024000,-0.024000)" d="M520.0 700.0H670.0V290.0Q670.0 156.0 586.0 73.0Q502.0 -10.0 368.0 -10.0Q233.0 -10.0 151.5 70.5Q70.0 151.0 70.0 285.0V700.0H225.0V290.0Q225.0 218.0 266.0 174.0Q307.0 130.0 373.0 130.0Q439.0 130.0 479.5 174.0Q520.0 218.0 520.0 290.0Z"/><path transform="translate(125.95,0) scale(0.024000,-0.024000)" d="M535.0 262.0H233.0V0.0H80.0V700.0H585.0V567.0H233.0V391.0H535.0Z"/><path transform="translate(144.43,0) scale(0.024000,-0.024000)" d="M561.0 0.0 229.0 472.0V0.0H80.0V700.0H238.0L561.0 240.0V700.0H710.0V0.0Z"/><path transform="translate(167.23,0) scale(0.024000,-0.024000)" d="M356.0 525.0 258.0 268.0H453.0ZM436.0 700.0 720.0 0.0H552.0L496.0 147.0H216.0L160.0 0.0H0.0L284.0 700.0Z"/><path transform="translate(188.35,0) scale(0.024000,-0.024000)" d="M405.0 105.0 227.0 441.0V0.0H80.0V700.0H237.0L449.0 294.0L661.0 700.0H810.0V0.0H663.0V441.0L485.0 105.0Z"/><path transform="translate(213.55,0) scale(0.024000,-0.024000)" d="M605.0 0.0H80.0V700.0H595.0V567.0H233.0V422.0H545.0V298.0H233.0V132.0H605.0Z"/></g><g fill="#FFFFFC" transform="translate(92.0,554.0)"><path transform="translate(0.00,0) scale(0.040000,-0.040000)" d="M415.0 710.0Q467.0 710.0 513.5 698.5Q560.0 687.0 590.0 670.5Q620.0 654.0 642.0 637.0Q664.0 620.0 674.0 608.0L684.0 597.0L572.0 499.0Q570.0 502.0 566.0 506.5Q562.0 511.0 547.0 523.0Q532.0 535.0 515.5 544.5Q499.0 554.0 471.0 561.5Q443.0 569.0 413.0 569.0Q320.0 569.0 259.0 506.0Q198.0 443.0 198.0 350.0Q198.0 256.0 259.0 193.0Q320.0 130.0 413.0 130.0Q445.0 130.0 474.0 138.5Q503.0 147.0 522.0 158.5Q541.0 170.0 555.0 182.0Q569.0 194.0 576.0 202.0L582.0 211.0L690.0 115.0Q686.0 110.0 679.0 101.5Q672.0 93.0 647.0 71.5Q622.0 50.0 592.0 33.5Q562.0 17.0 513.0 3.5Q464.0 -10.0 410.0 -10.0Q254.0 -10.0 149.5 92.5Q45.0 195.0 45.0 347.0Q45.0 499.0 152.0 604.5Q259.0 710.0 415.0 710.0Z"/><path transform="translate(29.80,0) scale(0.040000,-0.040000)" d="M538.0 0.0V295.0H233.0V0.0H80.0V700.0H233.0V431.0H538.0V700.0H690.0V0.0Z"/><path transform="translate(61.80,0) scale(0.040000,-0.040000)" d="M374.0 571.0H233.0V359.0H374.0Q429.0 359.0 461.0 388.5Q493.0 418.0 493.0 465.0Q493.0 512.0 461.0 541.5Q429.0 571.0 374.0 571.0ZM80.0 0.0V700.0H393.0Q505.0 700.0 575.0 637.0Q645.0 574.0 645.0 473.0Q645.0 399.0 605.5 343.0Q566.0 287.0 498.0 262.0L675.0 0.0H498.0L341.0 241.0H233.0V0.0Z"/><path transform="translate(91.00,0) scale(0.040000,-0.040000)" d="M85.0 0.0V700.0H242.0V0.0Z"/><path transform="translate(105.28,0) scale(0.040000,-0.040000)" d="M340.0 419.0Q540.0 341.0 540.0 200.0Q540.0 110.0 470.0 50.0Q400.0 -10.0 287.0 -10.0Q238.0 -10.0 192.5 1.0Q147.0 12.0 117.0 27.0Q87.0 42.0 64.0 57.5Q41.0 73.0 30.0 84.0L20.0 95.0L110.0 192.0Q113.0 189.0 119.0 183.5Q125.0 178.0 144.0 164.5Q163.0 151.0 183.5 141.0Q204.0 131.0 234.5 122.5Q265.0 114.0 295.0 114.0Q334.0 114.0 359.0 133.5Q384.0 153.0 384.0 183.0Q384.0 218.0 350.0 245.5Q316.0 273.0 225.0 310.0Q58.0 375.0 58.0 511.0Q58.0 598.0 125.0 654.0Q192.0 710.0 301.0 710.0Q344.0 710.0 384.0 700.5Q424.0 691.0 450.5 678.0Q477.0 665.0 498.0 652.0Q519.0 639.0 528.0 630.0L538.0 620.0L448.0 523.0Q441.0 530.0 429.0 540.5Q417.0 551.0 379.5 568.5Q342.0 586.0 303.0 586.0Q261.0 586.0 237.5 567.0Q214.0 548.0 214.0 523.0Q214.0 492.0 240.5 469.5Q267.0 447.0 340.0 419.0Z"/><path transform="translate(129.88,0) scale(0.040000,-0.040000)" d="M575.0 567.0H371.0V0.0H219.0V567.0H15.0V700.0H575.0Z"/><path transform="translate(154.68,0) scale(0.040000,-0.040000)" d="M413.0 130.0Q505.0 130.0 566.5 193.0Q628.0 256.0 628.0 350.0Q628.0 443.0 566.5 506.0Q505.0 569.0 413.0 569.0Q320.0 569.0 259.0 506.0Q198.0 443.0 198.0 350.0Q198.0 256.0 259.0 193.0Q320.0 130.0 413.0 130.0ZM152.0 604.5Q259.0 710.0 415.0 710.0Q571.0 710.0 675.5 607.0Q780.0 504.0 780.0 352.0Q780.0 200.0 673.0 95.0Q566.0 -10.0 410.0 -10.0Q254.0 -10.0 149.5 92.5Q45.0 195.0 45.0 347.0Q45.0 499.0 152.0 604.5Z"/><path transform="translate(188.88,0) scale(0.040000,-0.040000)" d="M368.0 571.0H233.0V347.0H368.0Q424.0 347.0 458.5 378.5Q493.0 410.0 493.0 459.0Q493.0 508.0 458.5 539.5Q424.0 571.0 368.0 571.0ZM80.0 0.0V700.0H383.0Q501.0 700.0 573.0 634.5Q645.0 569.0 645.0 463.0Q645.0 358.0 570.5 290.0Q496.0 222.0 378.0 222.0H233.0V0.0Z"/><path transform="translate(217.48,0) scale(0.040000,-0.040000)" d="M538.0 0.0V295.0H233.0V0.0H80.0V700.0H233.0V431.0H538.0V700.0H690.0V0.0Z"/><path transform="translate(261.76,0) scale(0.040000,-0.040000)" d="M78.0 290.0V700.0H508.0V575.0H208.0V429.0Q257.0 465.0 320.0 465.0Q419.0 465.0 481.0 400.0Q543.0 335.0 543.0 240.0Q543.0 131.0 470.5 60.5Q398.0 -10.0 284.0 -10.0Q238.0 -10.0 197.0 3.0Q156.0 16.0 130.5 35.0Q105.0 54.0 85.5 73.0Q66.0 92.0 58.0 105.0L50.0 118.0L158.0 195.0Q160.0 192.0 163.0 187.0Q166.0 182.0 177.0 170.0Q188.0 158.0 201.5 148.5Q215.0 139.0 236.5 131.0Q258.0 123.0 282.0 123.0Q335.0 123.0 366.5 154.5Q398.0 186.0 398.0 236.0Q398.0 279.0 368.5 309.0Q339.0 339.0 292.0 339.0Q263.0 339.0 240.5 326.5Q218.0 314.0 210.0 302.0L202.0 290.0Z"/><path transform="translate(286.68,0) scale(0.040000,-0.040000)" d="M15.0 522.0 270.0 700.0H390.0V0.0H245.0V530.0L84.0 425.0Z"/></g><rect x="64" y="578" width="3" height="56" fill="#D5A507"/><g fill="#FFFFFC" opacity=".55" transform="translate(92.0,604.0)"><path transform="translate(0.00,0) scale(0.024000,-0.024000)" d="M340.0 419.0Q540.0 341.0 540.0 200.0Q540.0 110.0 470.0 50.0Q400.0 -10.0 287.0 -10.0Q238.0 -10.0 192.5 1.0Q147.0 12.0 117.0 27.0Q87.0 42.0 64.0 57.5Q41.0 73.0 30.0 84.0L20.0 95.0L110.0 192.0Q113.0 189.0 119.0 183.5Q125.0 178.0 144.0 164.5Q163.0 151.0 183.5 141.0Q204.0 131.0 234.5 122.5Q265.0 114.0 295.0 114.0Q334.0 114.0 359.0 133.5Q384.0 153.0 384.0 183.0Q384.0 218.0 350.0 245.5Q316.0 273.0 225.0 310.0Q58.0 375.0 58.0 511.0Q58.0 598.0 125.0 654.0Q192.0 710.0 301.0 710.0Q344.0 710.0 384.0 700.5Q424.0 691.0 450.5 678.0Q477.0 665.0 498.0 652.0Q519.0 639.0 528.0 630.0L538.0 620.0L448.0 523.0Q441.0 530.0 429.0 540.5Q417.0 551.0 379.5 568.5Q342.0 586.0 303.0 586.0Q261.0 586.0 237.5 567.0Q214.0 548.0 214.0 523.0Q214.0 492.0 240.5 469.5Q267.0 447.0 340.0 419.0Z"/><path transform="translate(17.88,0) scale(0.024000,-0.024000)" d="M575.0 567.0H371.0V0.0H219.0V567.0H15.0V700.0H575.0Z"/><path transform="translate(35.88,0) scale(0.024000,-0.024000)" d="M356.0 525.0 258.0 268.0H453.0ZM436.0 700.0 720.0 0.0H552.0L496.0 147.0H216.0L160.0 0.0H0.0L284.0 700.0Z"/><path transform="translate(57.00,0) scale(0.024000,-0.024000)" d="M575.0 567.0H371.0V0.0H219.0V567.0H15.0V700.0H575.0Z"/><path transform="translate(75.00,0) scale(0.024000,-0.024000)" d="M85.0 0.0V700.0H242.0V0.0Z"/><path transform="translate(86.69,0) scale(0.024000,-0.024000)" d="M413.0 130.0Q505.0 130.0 566.5 193.0Q628.0 256.0 628.0 350.0Q628.0 443.0 566.5 506.0Q505.0 569.0 413.0 569.0Q320.0 569.0 259.0 506.0Q198.0 443.0 198.0 350.0Q198.0 256.0 259.0 193.0Q320.0 130.0 413.0 130.0ZM152.0 604.5Q259.0 710.0 415.0 710.0Q571.0 710.0 675.5 607.0Q780.0 504.0 780.0 352.0Q780.0 200.0 673.0 95.0Q566.0 -10.0 410.0 -10.0Q254.0 -10.0 149.5 92.5Q45.0 195.0 45.0 347.0Q45.0 499.0 152.0 604.5Z"/><path transform="translate(110.33,0) scale(0.024000,-0.024000)" d="M561.0 0.0 229.0 472.0V0.0H80.0V700.0H238.0L561.0 240.0V700.0H710.0V0.0Z"/></g><g fill="#FFFFFC" transform="translate(92.0,646.0)"><path transform="translate(0.00,0) scale(0.040000,-0.040000)" d="M340.0 419.0Q540.0 341.0 540.0 200.0Q540.0 110.0 470.0 50.0Q400.0 -10.0 287.0 -10.0Q238.0 -10.0 192.5 1.0Q147.0 12.0 117.0 27.0Q87.0 42.0 64.0 57.5Q41.0 73.0 30.0 84.0L20.0 95.0L110.0 192.0Q113.0 189.0 119.0 183.5Q125.0 178.0 144.0 164.5Q163.0 151.0 183.5 141.0Q204.0 131.0 234.5 122.5Q265.0 114.0 295.0 114.0Q334.0 114.0 359.0 133.5Q384.0 153.0 384.0 183.0Q384.0 218.0 350.0 245.5Q316.0 273.0 225.0 310.0Q58.0 375.0 58.0 511.0Q58.0 598.0 125.0 654.0Q192.0 710.0 301.0 710.0Q344.0 710.0 384.0 700.5Q424.0 691.0 450.5 678.0Q477.0 665.0 498.0 652.0Q519.0 639.0 528.0 630.0L538.0 620.0L448.0 523.0Q441.0 530.0 429.0 540.5Q417.0 551.0 379.5 568.5Q342.0 586.0 303.0 586.0Q261.0 586.0 237.5 567.0Q214.0 548.0 214.0 523.0Q214.0 492.0 240.5 469.5Q267.0 447.0 340.0 419.0Z"/><path transform="translate(24.60,0) scale(0.040000,-0.040000)" d="M575.0 567.0H371.0V0.0H219.0V567.0H15.0V700.0H575.0Z"/><path transform="translate(49.40,0) scale(0.040000,-0.040000)" d="M520.0 700.0H670.0V290.0Q670.0 156.0 586.0 73.0Q502.0 -10.0 368.0 -10.0Q233.0 -10.0 151.5 70.5Q70.0 151.0 70.0 285.0V700.0H225.0V290.0Q225.0 218.0 266.0 174.0Q307.0 130.0 373.0 130.0Q439.0 130.0 479.5 174.0Q520.0 218.0 520.0 290.0Z"/><path transform="translate(80.20,0) scale(0.040000,-0.040000)" d="M575.0 567.0H371.0V0.0H219.0V567.0H15.0V700.0H575.0Z"/><path transform="translate(105.00,0) scale(0.040000,-0.040000)" d="M575.0 567.0H371.0V0.0H219.0V567.0H15.0V700.0H575.0Z"/><path transform="translate(129.80,0) scale(0.040000,-0.040000)" d="M405.0 380.0H753.0Q755.0 361.0 755.0 341.0Q754.0 192.0 657.5 91.0Q561.0 -10.0 410.0 -10.0Q254.0 -10.0 149.5 93.0Q45.0 196.0 45.0 348.0Q45.0 500.0 152.0 605.0Q259.0 710.0 415.0 710.0Q467.0 710.0 513.5 699.0Q560.0 688.0 589.5 672.0Q619.0 656.0 641.5 640.0Q664.0 624.0 674.0 613.0L683.0 602.0L577.0 494.0Q575.0 497.0 570.5 502.0Q566.0 507.0 550.5 520.5Q535.0 534.0 517.5 544.0Q500.0 554.0 471.5 562.0Q443.0 570.0 412.0 570.0Q319.0 570.0 258.0 507.0Q197.0 444.0 197.0 349.0Q197.0 254.0 258.0 190.5Q319.0 127.0 412.0 127.0Q485.0 127.0 535.0 165.5Q585.0 204.0 598.0 270.0H405.0Z"/><path transform="translate(163.00,0) scale(0.040000,-0.040000)" d="M356.0 525.0 258.0 268.0H453.0ZM436.0 700.0 720.0 0.0H552.0L496.0 147.0H216.0L160.0 0.0H0.0L284.0 700.0Z"/><path transform="translate(193.00,0) scale(0.040000,-0.040000)" d="M374.0 571.0H233.0V359.0H374.0Q429.0 359.0 461.0 388.5Q493.0 418.0 493.0 465.0Q493.0 512.0 461.0 541.5Q429.0 571.0 374.0 571.0ZM80.0 0.0V700.0H393.0Q505.0 700.0 575.0 637.0Q645.0 574.0 645.0 473.0Q645.0 399.0 605.5 343.0Q566.0 287.0 498.0 262.0L675.0 0.0H498.0L341.0 241.0H233.0V0.0Z"/><path transform="translate(222.20,0) scale(0.040000,-0.040000)" d="M575.0 567.0H371.0V0.0H219.0V567.0H15.0V700.0H575.0Z"/></g><rect x="64" y="670" width="3" height="56" fill="#D5A507"/><g fill="#FFFFFC" opacity=".55" transform="translate(92.0,696.0)"><path transform="translate(0.00,0) scale(0.024000,-0.024000)" d="M340.0 419.0Q540.0 341.0 540.0 200.0Q540.0 110.0 470.0 50.0Q400.0 -10.0 287.0 -10.0Q238.0 -10.0 192.5 1.0Q147.0 12.0 117.0 27.0Q87.0 42.0 64.0 57.5Q41.0 73.0 30.0 84.0L20.0 95.0L110.0 192.0Q113.0 189.0 119.0 183.5Q125.0 178.0 144.0 164.5Q163.0 151.0 183.5 141.0Q204.0 131.0 234.5 122.5Q265.0 114.0 295.0 114.0Q334.0 114.0 359.0 133.5Q384.0 153.0 384.0 183.0Q384.0 218.0 350.0 245.5Q316.0 273.0 225.0 310.0Q58.0 375.0 58.0 511.0Q58.0 598.0 125.0 654.0Q192.0 710.0 301.0 710.0Q344.0 710.0 384.0 700.5Q424.0 691.0 450.5 678.0Q477.0 665.0 498.0 652.0Q519.0 639.0 528.0 630.0L538.0 620.0L448.0 523.0Q441.0 530.0 429.0 540.5Q417.0 551.0 379.5 568.5Q342.0 586.0 303.0 586.0Q261.0 586.0 237.5 567.0Q214.0 548.0 214.0 523.0Q214.0 492.0 240.5 469.5Q267.0 447.0 340.0 419.0Z"/><path transform="translate(17.88,0) scale(0.024000,-0.024000)" d="M575.0 567.0H371.0V0.0H219.0V567.0H15.0V700.0H575.0Z"/><path transform="translate(35.88,0) scale(0.024000,-0.024000)" d="M356.0 525.0 258.0 268.0H453.0ZM436.0 700.0 720.0 0.0H552.0L496.0 147.0H216.0L160.0 0.0H0.0L284.0 700.0Z"/><path transform="translate(57.00,0) scale(0.024000,-0.024000)" d="M575.0 567.0H371.0V0.0H219.0V567.0H15.0V700.0H575.0Z"/><path transform="translate(75.00,0) scale(0.024000,-0.024000)" d="M520.0 700.0H670.0V290.0Q670.0 156.0 586.0 73.0Q502.0 -10.0 368.0 -10.0Q233.0 -10.0 151.5 70.5Q70.0 151.0 70.0 285.0V700.0H225.0V290.0Q225.0 218.0 266.0 174.0Q307.0 130.0 373.0 130.0Q439.0 130.0 479.5 174.0Q520.0 218.0 520.0 290.0Z"/><path transform="translate(96.60,0) scale(0.024000,-0.024000)" d="M340.0 419.0Q540.0 341.0 540.0 200.0Q540.0 110.0 470.0 50.0Q400.0 -10.0 287.0 -10.0Q238.0 -10.0 192.5 1.0Q147.0 12.0 117.0 27.0Q87.0 42.0 64.0 57.5Q41.0 73.0 30.0 84.0L20.0 95.0L110.0 192.0Q113.0 189.0 119.0 183.5Q125.0 178.0 144.0 164.5Q163.0 151.0 183.5 141.0Q204.0 131.0 234.5 122.5Q265.0 114.0 295.0 114.0Q334.0 114.0 359.0 133.5Q384.0 153.0 384.0 183.0Q384.0 218.0 350.0 245.5Q316.0 273.0 225.0 310.0Q58.0 375.0 58.0 511.0Q58.0 598.0 125.0 654.0Q192.0 710.0 301.0 710.0Q344.0 710.0 384.0 700.5Q424.0 691.0 450.5 678.0Q477.0 665.0 498.0 652.0Q519.0 639.0 528.0 630.0L538.0 620.0L448.0 523.0Q441.0 530.0 429.0 540.5Q417.0 551.0 379.5 568.5Q342.0 586.0 303.0 586.0Q261.0 586.0 237.5 567.0Q214.0 548.0 214.0 523.0Q214.0 492.0 240.5 469.5Q267.0 447.0 340.0 419.0Z"/></g><g fill="#FFFFFC" transform="translate(92.0,738.0)"><path transform="translate(0.00,0) scale(0.040000,-0.040000)" d="M173.0 415.0H243.0Q292.0 415.0 318.5 438.0Q345.0 461.0 345.0 500.0Q345.0 538.0 318.5 561.0Q292.0 584.0 250.0 584.0Q215.0 584.0 189.5 569.0Q164.0 554.0 156.0 539.0L148.0 524.0L43.0 585.0Q45.0 590.0 49.5 598.5Q54.0 607.0 72.5 628.5Q91.0 650.0 113.5 666.5Q136.0 683.0 176.0 696.5Q216.0 710.0 262.0 710.0Q358.0 710.0 424.0 657.5Q490.0 605.0 490.0 521.0Q490.0 471.0 463.5 430.5Q437.0 390.0 391.0 365.0Q447.0 340.0 478.5 296.0Q510.0 252.0 510.0 194.0Q510.0 103.0 438.5 46.5Q367.0 -10.0 256.0 -10.0Q206.0 -10.0 163.0 4.0Q120.0 18.0 94.5 37.5Q69.0 57.0 50.5 76.5Q32.0 96.0 25.0 110.0L18.0 124.0L126.0 189.0Q127.0 186.0 130.0 181.0Q133.0 176.0 144.5 163.0Q156.0 150.0 169.0 140.5Q182.0 131.0 205.0 123.0Q228.0 115.0 253.0 115.0Q303.0 115.0 334.0 142.5Q365.0 170.0 365.0 209.0Q365.0 251.0 333.0 278.0Q301.0 305.0 242.0 305.0H173.0Z"/><path transform="translate(35.88,0) scale(0.040000,-0.040000)" d="M850.0 291.0H50.0V419.0H850.0Z"/><path transform="translate(85.36,0) scale(0.040000,-0.040000)" d="M356.0 525.0 258.0 268.0H453.0ZM436.0 700.0 720.0 0.0H552.0L496.0 147.0H216.0L160.0 0.0H0.0L284.0 700.0Z"/><path transform="translate(115.36,0) scale(0.040000,-0.040000)" d="M520.0 700.0H670.0V290.0Q670.0 156.0 586.0 73.0Q502.0 -10.0 368.0 -10.0Q233.0 -10.0 151.5 70.5Q70.0 151.0 70.0 285.0V700.0H225.0V290.0Q225.0 218.0 266.0 174.0Q307.0 130.0 373.0 130.0Q439.0 130.0 479.5 174.0Q520.0 218.0 520.0 290.0Z"/><path transform="translate(146.16,0) scale(0.040000,-0.040000)" d="M535.0 262.0H233.0V0.0H80.0V700.0H585.0V567.0H233.0V391.0H535.0Z"/><path transform="translate(184.04,0) scale(0.040000,-0.040000)" d="M356.0 525.0 258.0 268.0H453.0ZM436.0 700.0 720.0 0.0H552.0L496.0 147.0H216.0L160.0 0.0H0.0L284.0 700.0Z"/><path transform="translate(214.04,0) scale(0.040000,-0.040000)" d="M561.0 0.0 229.0 472.0V0.0H80.0V700.0H238.0L561.0 240.0V700.0H710.0V0.0Z"/><path transform="translate(246.84,0) scale(0.040000,-0.040000)" d="M535.0 262.0H233.0V0.0H80.0V700.0H585.0V567.0H233.0V391.0H535.0Z"/><path transform="translate(272.44,0) scale(0.040000,-0.040000)" d="M356.0 525.0 258.0 268.0H453.0ZM436.0 700.0 720.0 0.0H552.0L496.0 147.0H216.0L160.0 0.0H0.0L284.0 700.0Z"/><path transform="translate(302.44,0) scale(0.040000,-0.040000)" d="M538.0 0.0V295.0H233.0V0.0H80.0V700.0H233.0V431.0H538.0V700.0H690.0V0.0Z"/><path transform="translate(334.44,0) scale(0.040000,-0.040000)" d="M374.0 571.0H233.0V359.0H374.0Q429.0 359.0 461.0 388.5Q493.0 418.0 493.0 465.0Q493.0 512.0 461.0 541.5Q429.0 571.0 374.0 571.0ZM80.0 0.0V700.0H393.0Q505.0 700.0 575.0 637.0Q645.0 574.0 645.0 473.0Q645.0 399.0 605.5 343.0Q566.0 287.0 498.0 262.0L675.0 0.0H498.0L341.0 241.0H233.0V0.0Z"/><path transform="translate(363.64,0) scale(0.040000,-0.040000)" d="M575.0 567.0H371.0V0.0H219.0V567.0H15.0V700.0H575.0Z"/></g><rect x="64" y="762" width="3" height="56" fill="#D5A507"/><g fill="#FFFFFC" opacity=".55" transform="translate(92.0,788.0)"><path transform="translate(0.00,0) scale(0.024000,-0.024000)" d="M233.0 567.0V132.0H333.0Q433.0 132.0 498.0 194.0Q563.0 256.0 563.0 350.0Q563.0 444.0 498.0 505.5Q433.0 567.0 333.0 567.0ZM80.0 700.0H330.0Q498.0 700.0 606.5 601.0Q715.0 502.0 715.0 352.0Q715.0 202.0 604.0 101.0Q493.0 0.0 325.0 0.0H80.0Z"/><path transform="translate(22.08,0) scale(0.024000,-0.024000)" d="M85.0 0.0V700.0H242.0V0.0Z"/><path transform="translate(33.77,0) scale(0.024000,-0.024000)" d="M340.0 419.0Q540.0 341.0 540.0 200.0Q540.0 110.0 470.0 50.0Q400.0 -10.0 287.0 -10.0Q238.0 -10.0 192.5 1.0Q147.0 12.0 117.0 27.0Q87.0 42.0 64.0 57.5Q41.0 73.0 30.0 84.0L20.0 95.0L110.0 192.0Q113.0 189.0 119.0 183.5Q125.0 178.0 144.0 164.5Q163.0 151.0 183.5 141.0Q204.0 131.0 234.5 122.5Q265.0 114.0 295.0 114.0Q334.0 114.0 359.0 133.5Q384.0 153.0 384.0 183.0Q384.0 218.0 350.0 245.5Q316.0 273.0 225.0 310.0Q58.0 375.0 58.0 511.0Q58.0 598.0 125.0 654.0Q192.0 710.0 301.0 710.0Q344.0 710.0 384.0 700.5Q424.0 691.0 450.5 678.0Q477.0 665.0 498.0 652.0Q519.0 639.0 528.0 630.0L538.0 620.0L448.0 523.0Q441.0 530.0 429.0 540.5Q417.0 551.0 379.5 568.5Q342.0 586.0 303.0 586.0Q261.0 586.0 237.5 567.0Q214.0 548.0 214.0 523.0Q214.0 492.0 240.5 469.5Q267.0 447.0 340.0 419.0Z"/><path transform="translate(51.65,0) scale(0.024000,-0.024000)" d="M368.0 571.0H233.0V347.0H368.0Q424.0 347.0 458.5 378.5Q493.0 410.0 493.0 459.0Q493.0 508.0 458.5 539.5Q424.0 571.0 368.0 571.0ZM80.0 0.0V700.0H383.0Q501.0 700.0 573.0 634.5Q645.0 569.0 645.0 463.0Q645.0 358.0 570.5 290.0Q496.0 222.0 378.0 222.0H233.0V0.0Z"/><path transform="translate(71.93,0) scale(0.024000,-0.024000)" d="M413.0 130.0Q505.0 130.0 566.5 193.0Q628.0 256.0 628.0 350.0Q628.0 443.0 566.5 506.0Q505.0 569.0 413.0 569.0Q320.0 569.0 259.0 506.0Q198.0 443.0 198.0 350.0Q198.0 256.0 259.0 193.0Q320.0 130.0 413.0 130.0ZM152.0 604.5Q259.0 710.0 415.0 710.0Q571.0 710.0 675.5 607.0Q780.0 504.0 780.0 352.0Q780.0 200.0 673.0 95.0Q566.0 -10.0 410.0 -10.0Q254.0 -10.0 149.5 92.5Q45.0 195.0 45.0 347.0Q45.0 499.0 152.0 604.5Z"/><path transform="translate(95.57,0) scale(0.024000,-0.024000)" d="M561.0 0.0 229.0 472.0V0.0H80.0V700.0H238.0L561.0 240.0V700.0H710.0V0.0Z"/><path transform="translate(118.37,0) scale(0.024000,-0.024000)" d="M605.0 0.0H80.0V700.0H595.0V567.0H233.0V422.0H545.0V298.0H233.0V132.0H605.0Z"/><path transform="translate(137.81,0) scale(0.024000,-0.024000)" d="M561.0 0.0 229.0 472.0V0.0H80.0V700.0H238.0L561.0 240.0V700.0H710.0V0.0Z"/><path transform="translate(160.61,0) scale(0.024000,-0.024000)" d="M575.0 567.0H371.0V0.0H219.0V567.0H15.0V700.0H575.0Z"/></g><g fill="#FFFFFC" transform="translate(92.0,830.0)"><path transform="translate(0.00,0) scale(0.040000,-0.040000)" d="M575.0 0.0H80.0V700.0H233.0V136.0H575.0Z"/><path transform="translate(24.80,0) scale(0.040000,-0.040000)" d="M340.0 419.0Q540.0 341.0 540.0 200.0Q540.0 110.0 470.0 50.0Q400.0 -10.0 287.0 -10.0Q238.0 -10.0 192.5 1.0Q147.0 12.0 117.0 27.0Q87.0 42.0 64.0 57.5Q41.0 73.0 30.0 84.0L20.0 95.0L110.0 192.0Q113.0 189.0 119.0 183.5Q125.0 178.0 144.0 164.5Q163.0 151.0 183.5 141.0Q204.0 131.0 234.5 122.5Q265.0 114.0 295.0 114.0Q334.0 114.0 359.0 133.5Q384.0 153.0 384.0 183.0Q384.0 218.0 350.0 245.5Q316.0 273.0 225.0 310.0Q58.0 375.0 58.0 511.0Q58.0 598.0 125.0 654.0Q192.0 710.0 301.0 710.0Q344.0 710.0 384.0 700.5Q424.0 691.0 450.5 678.0Q477.0 665.0 498.0 652.0Q519.0 639.0 528.0 630.0L538.0 620.0L448.0 523.0Q441.0 530.0 429.0 540.5Q417.0 551.0 379.5 568.5Q342.0 586.0 303.0 586.0Q261.0 586.0 237.5 567.0Q214.0 548.0 214.0 523.0Q214.0 492.0 240.5 469.5Q267.0 447.0 340.0 419.0Z"/><path transform="translate(49.40,0) scale(0.040000,-0.040000)" d="M575.0 567.0H371.0V0.0H219.0V567.0H15.0V700.0H575.0Z"/><path transform="translate(86.48,0) scale(0.040000,-0.040000)" d="M202.0 470.0V230.0Q202.0 181.0 231.0 152.0Q260.0 123.0 307.0 123.0Q354.0 123.0 383.0 152.5Q412.0 182.0 412.0 230.0V470.0Q412.0 518.0 383.0 547.5Q354.0 577.0 307.0 577.0Q260.0 577.0 231.0 547.5Q202.0 518.0 202.0 470.0ZM57.0 240.0V455.0Q57.0 573.0 128.0 641.5Q199.0 710.0 309.0 710.0Q420.0 710.0 488.5 644.0Q557.0 578.0 557.0 460.0V245.0Q557.0 127.0 485.5 58.5Q414.0 -10.0 304.0 -10.0Q194.0 -10.0 125.5 56.0Q57.0 122.0 57.0 240.0Z"/><path transform="translate(112.28,0) scale(0.040000,-0.040000)" d="M15.0 522.0 270.0 700.0H390.0V0.0H245.0V530.0L84.0 425.0Z"/></g><rect x="0" y="930" width="1080" height="150" fill="#00113A"/><rect x="0" y="930" width="1080" height="8" fill="#D5A507"/><g transform="translate(24,955.5) scale(0.21094)"><defs><clipPath id="n1b23"><circle cx="256" cy="256" r="256"/></clipPath></defs><g clip-path="url(#n1b23)"><circle cx="256" cy="256" r="256" fill="#00113A"/><g fill="#D5A507" transform="translate(47.00,180.87) scale(0.41800)"><path d="M35.7 305.27C27.86 297.99 20 290.67 18.23 289.02C12.94 284.07 7.26 277.76 2.59 271.63C1.3 269.94 1.3 269.94 0.67 259.67C0.04 249.4 0.04 249.4 3.21 243.43C17.85 215.93 25.31 198.26 26.9 187.33C27.45 183.58 26.65 184.36 34.25 180.13C39.92 176.97 39.91 176.98 39.91 175.49C39.91 173.85 39.02 172.61 37.83 172.6C37.11 172.6 37.81 175.22 31.69 149.81C26.64 128.87 26.11 126.2 26.67 124.15C27.12 122.49 32.62 119.37 41.13 115.95C46.53 113.78 47.49 113.3 48.58 112.26C50.67 110.26 58.97 108.69 71.24 107.99C77.19 107.64 74.98 104.81 89.29 131.15C96.15 143.79 105.73 161.29 110.57 170.04C115.41 178.79 120.75 188.62 122.44 191.88C129.48 205.52 134.23 213.21 136.29 214.34C139.72 216.22 170.18 212.83 229.23 204.01C250.02 200.91 306.75 190.88 330.23 186.17C332.66 185.68 332.66 185.68 333.54 183.12C338.5 168.63 350.1 151.3 360.17 143.32C372.8 133.3 397.13 121.34 414.41 116.63C435.84 110.79 444.66 109.17 464.81 107.34C479.81 105.98 511.76 102.62 512.05 102.38C512.08 102.36 511.65 99.49 511.1 96.01C510.1 89.68 510.1 89.68 506.87 88.58C502.65 87.13 501 86.26 499.45 84.67C498.18 83.37 498.18 83.37 487.88 83.75C459.05 84.82 451.08 85.73 441.9 89.01C435.4 91.33 435.45 91.31 428.8 91.97C362.81 98.45 214.12 125.11 126.21 146.21C111.13 149.83 109.91 149.82 109.35 146.09C108.62 141.18 110.96 140.04 130.7 135.68C199.78 120.43 262.82 107.4 294.63 101.81C336.98 94.36 431.41 81.22 452.54 79.84C455.13 79.67 462.05 79.18 467.91 78.75C473.77 78.33 480.74 77.91 483.41 77.82C496.02 77.41 495.76 77.44 495.55 76.49C495.44 76.03 495.28 74.08 495.18 72.17C495.01 68.69 495.01 68.69 493.75 68.38C493.06 68.2 491.24 67.34 489.71 66.47C482.4 62.32 482.87 62.48 475.05 61.23C461.69 59.09 454.17 57.41 449.82 55.59C448.42 55 444.91 53.47 442.02 52.19C431.61 47.57 418.28 42.66 392.8 34.08C364.87 24.67 339.59 17.5 311.76 11.09C299.95 8.37 299.99 8.38 290.21 6.6C279.38 4.63 274.04 3.36 274.55 2.87C275.14 2.3 289.73 0.65 297.88 0.23C311.16 -0.46 311.55 -0.4 341.15 6.74C389.7 18.46 402.15 22.04 437.97 34.58C462.99 43.33 472.02 47.05 486.52 54.55C489.7 56.2 494.13 58.47 496.36 59.59C498.58 60.72 500.74 61.86 501.14 62.13C501.87 62.62 501.89 62.62 504.82 61.38C519.4 55.23 529.43 55.03 540.79 60.69C546.35 63.46 548.17 64.78 548.98 66.6C549.58 67.97 555.31 67.94 575.92 66.45C598.39 64.83 598.39 64.83 607.34 62.29C614.29 60.32 614.14 60.33 639.56 58.79C703.41 54.93 756.26 53.13 806.36 53.13C858.12 53.13 977.54 55.09 996.82 56.26C1000.43 56.48 1001.17 58.14 998.71 60.49C995.29 63.76 991.43 63.94 948.73 62.85C873.08 60.91 856.08 60.83 788.97 62.17C722.22 63.5 694.67 64.8 620.01 70.11C613.86 70.55 607 70.98 604.77 71.07C591.89 71.59 573.5 73.35 567.47 74.64C561.97 75.82 561.32 75.9 556.36 76.04C551.11 76.19 551.11 76.19 550.94 78.75C550.84 80.16 550.57 81.77 550.34 82.33C550.01 83.11 549.99 83.38 550.24 83.47C550.42 83.53 553.42 84.55 556.9 85.72C560.39 86.9 566.25 88.96 569.93 90.32C573.61 91.67 576.74 92.77 576.89 92.77C580.14 92.77 614.7 111.79 625.81 119.69C630.93 123.34 630.93 123.34 636.87 124.75C672.02 133.12 689.95 139.38 701.29 147.24C705.18 149.93 705.18 149.93 720.24 155.31C752.95 166.98 765.35 173.35 790.99 191.66C799.5 197.73 816.67 214.97 819.64 220.42C823.42 227.36 820.75 237.21 814.42 239.63C811.9 240.59 812.26 240.2 804.25 250.61C795.46 262.02 780.6 276.24 776.87 276.82C775.66 277 373.53 299.94 373.25 299.84C371.87 299.33 359.32 284.34 355.46 278.59C344.66 262.51 338.75 252.16 334.39 241.69C332.21 236.45 330.36 232.1 330.28 232.02C329.97 231.71 213.68 249.73 187.97 254.08C164.08 258.12 163.13 258.35 158.5 261.43C151.54 266.06 146.73 270.44 129.11 288.18C98.73 318.77 105.03 315.29 77.25 316.85C63.91 317.61 52.31 318.29 51.48 318.37C49.96 318.52 49.96 318.52 35.7 305.27ZM65.16 294.35C83.73 291.12 97.51 273.39 100.91 248.38C101.38 244.97 101.37 230.17 100.9 226C99.56 213.99 98.8 211.61 94.02 204.55C76.64 178.83 40.43 194.92 31.18 232.47C22.2 268.91 38.7 298.96 65.16 294.35ZM426.51 238.42C508.82 228.76 585.47 223.14 652.64 221.81C692.24 221.03 690.56 222.48 677.71 200.11C656.08 162.43 653.86 160.82 626.75 163.14C557.73 169.02 495.94 179.34 427.86 196.36C408.78 201.13 406.7 201.91 404.56 205.13C401.84 209.25 402.31 210.47 412.79 226.27C421.54 239.45 421.09 239.05 426.51 238.42ZM771.34 224.12C780.47 221.3 789.76 206.88 786.96 199.86C783.31 190.7 764.16 174.62 748.38 167.48C741.64 164.43 718.63 155.97 707.64 152.51C687.74 146.23 651.12 143.59 643.34 147.88C640.63 149.37 642.43 150.74 649.96 152.91C662.3 156.47 670.56 163.87 679.03 178.98C687.23 193.6 699.29 212.89 702.16 215.99C707.1 221.32 707.66 221.47 727.59 222.62C764.71 224.76 768.81 224.9 771.34 224.12ZM591.15 114.24C591.15 114.08 588 112.11 584.82 110.28C578.3 106.55 556.35 96.34 545.07 91.8C543.08 91 540.82 89.97 540.03 89.52C537.82 88.26 535.19 88.74 534.96 90.44C534.72 92.22 534.14 101.92 534.27 102.04C534.33 102.09 541.55 103.67 550.3 105.55C559.05 107.43 571.61 110.17 578.21 111.63C589.8 114.19 591.15 114.47 591.15 114.24Z" fill-rule="evenodd"/></g><rect x="0" y="288" width="512" height="13" fill="#FFFFFC"/><g fill="#FFFFFC" transform="translate(140.00,336.07) scale(0.23200)"><path d="M289.74 479.69C249.1 462.82 211.02 441.92 174.82 416.64C167.25 411.34 167.25 411.34 166.37 409.23C162.93 400.93 0.18 1.51 0.07 1.11C-0.06 0.62 2.84 0.59 58.01 0.59L116.09 0.59L185.06 170.03C222.99 263.22 254.1 339.51 254.19 339.56C254.28 339.61 285.4 263.37 323.34 170.12C384.28 20.39 392.41 0.59 392.96 0.59C393.29 0.59 393.7 0.46 393.87 0.29C394.06 0.1 413.57 0.02 451.79 0.07L509.42 0.15L544.76 86.85C564.2 134.53 608.31 242.75 642.78 327.34C677.26 411.92 705.52 481.23 705.59 481.35C705.67 481.47 679.54 481.57 647.54 481.57L589.35 481.57L573.97 443.75L558.58 405.93L471.57 405.85C423.71 405.81 384.55 405.68 384.54 405.56C384.54 405.44 392.39 385.74 402 361.78L419.45 318.23L471.2 318.41C515.7 318.56 522.93 318.53 522.79 318.17C522.7 317.94 506.67 278.74 487.17 231.05C467.67 183.37 451.59 144.02 451.43 143.62C451.18 142.97 450.83 143.66 448.49 149.51C443.95 160.87 401.02 266.69 388.38 297.7C381.77 313.92 368.25 347.1 358.35 371.42C348.45 395.75 334.26 430.59 326.81 448.84L313.26 482.01L304.45 482.08C295.64 482.14 295.64 482.14 289.74 479.69ZM816.71 375.56L781.33 325.28L743.07 325.27L704.81 325.27L704.73 373.84L704.66 422.41L653.27 296.34L601.89 170.27L601.89 85.28L601.89 0.29L714.76 0.3C833.83 0.3 832.21 0.29 844 1.6C928.95 11.07 989.75 66.44 998.79 142.58C1007.87 219.03 965.21 287.28 892.44 312.78C891.58 313.08 890.89 313.43 890.89 313.56C890.89 313.69 899.25 325.68 909.48 340.21C925.33 362.72 928.01 366.68 927.69 367.07C925.15 370.14 900.18 391.1 887.5 400.82C876.27 409.42 854.38 424.97 852.46 425.7C852.24 425.79 838.37 406.35 816.71 375.56ZM814.95 230.6C864.01 227.69 894.92 200 893.44 160.28C892.13 125.15 865.53 100.73 822.91 95.56C816.39 94.77 809.35 94.67 758.26 94.67L704.81 94.66L704.81 162.78L704.81 230.91L757.37 230.9C789.22 230.9 811.91 230.78 814.95 230.6Z" fill-rule="evenodd"/></g></g></g><g fill="#FFFFFC" transform="translate(165.0,1020.0)"><path transform="translate(0.00,0) scale(0.030000,-0.030000)" d="M279.0 0.0 0.0 700.0H172.0L359.0 197.0L546.0 700.0H710.0L431.0 0.0Z"/><path transform="translate(26.10,0) scale(0.030000,-0.030000)" d="M85.0 0.0V700.0H242.0V0.0Z"/><path transform="translate(40.71,0) scale(0.030000,-0.030000)" d="M374.0 571.0H233.0V359.0H374.0Q429.0 359.0 461.0 388.5Q493.0 418.0 493.0 465.0Q493.0 512.0 461.0 541.5Q429.0 571.0 374.0 571.0ZM80.0 0.0V700.0H393.0Q505.0 700.0 575.0 637.0Q645.0 574.0 645.0 473.0Q645.0 399.0 605.5 343.0Q566.0 287.0 498.0 262.0L675.0 0.0H498.0L341.0 241.0H233.0V0.0Z"/><path transform="translate(66.51,0) scale(0.030000,-0.030000)" d="M575.0 567.0H371.0V0.0H219.0V567.0H15.0V700.0H575.0Z"/><path transform="translate(89.01,0) scale(0.030000,-0.030000)" d="M520.0 700.0H670.0V290.0Q670.0 156.0 586.0 73.0Q502.0 -10.0 368.0 -10.0Q233.0 -10.0 151.5 70.5Q70.0 151.0 70.0 285.0V700.0H225.0V290.0Q225.0 218.0 266.0 174.0Q307.0 130.0 373.0 130.0Q439.0 130.0 479.5 174.0Q520.0 218.0 520.0 290.0Z"/><path transform="translate(116.01,0) scale(0.030000,-0.030000)" d="M356.0 525.0 258.0 268.0H453.0ZM436.0 700.0 720.0 0.0H552.0L496.0 147.0H216.0L160.0 0.0H0.0L284.0 700.0Z"/><path transform="translate(142.41,0) scale(0.030000,-0.030000)" d="M575.0 0.0H80.0V700.0H233.0V136.0H575.0Z"/><path transform="translate(164.91,0) scale(0.030000,-0.030000)" d="M356.0 525.0 258.0 268.0H453.0ZM436.0 700.0 720.0 0.0H552.0L496.0 147.0H216.0L160.0 0.0H0.0L284.0 700.0Z"/><path transform="translate(191.31,0) scale(0.030000,-0.030000)" d="M85.0 0.0V700.0H242.0V0.0Z"/><path transform="translate(205.92,0) scale(0.030000,-0.030000)" d="M374.0 571.0H233.0V359.0H374.0Q429.0 359.0 461.0 388.5Q493.0 418.0 493.0 465.0Q493.0 512.0 461.0 541.5Q429.0 571.0 374.0 571.0ZM80.0 0.0V700.0H393.0Q505.0 700.0 575.0 637.0Q645.0 574.0 645.0 473.0Q645.0 399.0 605.5 343.0Q566.0 287.0 498.0 262.0L675.0 0.0H498.0L341.0 241.0H233.0V0.0Z"/><path transform="translate(231.72,0) scale(0.030000,-0.030000)" d="M374.0 571.0H233.0V359.0H374.0Q429.0 359.0 461.0 388.5Q493.0 418.0 493.0 465.0Q493.0 512.0 461.0 541.5Q429.0 571.0 374.0 571.0ZM80.0 0.0V700.0H393.0Q505.0 700.0 575.0 637.0Q645.0 574.0 645.0 473.0Q645.0 399.0 605.5 343.0Q566.0 287.0 498.0 262.0L675.0 0.0H498.0L341.0 241.0H233.0V0.0Z"/><path transform="translate(257.52,0) scale(0.030000,-0.030000)" d="M605.0 0.0H80.0V700.0H595.0V567.0H233.0V422.0H545.0V298.0H233.0V132.0H605.0Z"/><path transform="translate(281.82,0) scale(0.030000,-0.030000)" d="M340.0 419.0Q540.0 341.0 540.0 200.0Q540.0 110.0 470.0 50.0Q400.0 -10.0 287.0 -10.0Q238.0 -10.0 192.5 1.0Q147.0 12.0 117.0 27.0Q87.0 42.0 64.0 57.5Q41.0 73.0 30.0 84.0L20.0 95.0L110.0 192.0Q113.0 189.0 119.0 183.5Q125.0 178.0 144.0 164.5Q163.0 151.0 183.5 141.0Q204.0 131.0 234.5 122.5Q265.0 114.0 295.0 114.0Q334.0 114.0 359.0 133.5Q384.0 153.0 384.0 183.0Q384.0 218.0 350.0 245.5Q316.0 273.0 225.0 310.0Q58.0 375.0 58.0 511.0Q58.0 598.0 125.0 654.0Q192.0 710.0 301.0 710.0Q344.0 710.0 384.0 700.5Q424.0 691.0 450.5 678.0Q477.0 665.0 498.0 652.0Q519.0 639.0 528.0 630.0L538.0 620.0L448.0 523.0Q441.0 530.0 429.0 540.5Q417.0 551.0 379.5 568.5Q342.0 586.0 303.0 586.0Q261.0 586.0 237.5 567.0Q214.0 548.0 214.0 523.0Q214.0 492.0 240.5 469.5Q267.0 447.0 340.0 419.0Z"/><path transform="translate(304.17,0) scale(0.030000,-0.030000)" d="M415.0 710.0Q467.0 710.0 513.5 698.5Q560.0 687.0 590.0 670.5Q620.0 654.0 642.0 637.0Q664.0 620.0 674.0 608.0L684.0 597.0L572.0 499.0Q570.0 502.0 566.0 506.5Q562.0 511.0 547.0 523.0Q532.0 535.0 515.5 544.5Q499.0 554.0 471.0 561.5Q443.0 569.0 413.0 569.0Q320.0 569.0 259.0 506.0Q198.0 443.0 198.0 350.0Q198.0 256.0 259.0 193.0Q320.0 130.0 413.0 130.0Q445.0 130.0 474.0 138.5Q503.0 147.0 522.0 158.5Q541.0 170.0 555.0 182.0Q569.0 194.0 576.0 202.0L582.0 211.0L690.0 115.0Q686.0 110.0 679.0 101.5Q672.0 93.0 647.0 71.5Q622.0 50.0 592.0 33.5Q562.0 17.0 513.0 3.5Q464.0 -10.0 410.0 -10.0Q254.0 -10.0 149.5 92.5Q45.0 195.0 45.0 347.0Q45.0 499.0 152.0 604.5Q259.0 710.0 415.0 710.0Z"/><path transform="translate(330.42,0) scale(0.030000,-0.030000)" d="M520.0 700.0H670.0V290.0Q670.0 156.0 586.0 73.0Q502.0 -10.0 368.0 -10.0Q233.0 -10.0 151.5 70.5Q70.0 151.0 70.0 285.0V700.0H225.0V290.0Q225.0 218.0 266.0 174.0Q307.0 130.0 373.0 130.0Q439.0 130.0 479.5 174.0Q520.0 218.0 520.0 290.0Z"/><path transform="translate(357.42,0) scale(0.030000,-0.030000)" d="M605.0 0.0H80.0V700.0H595.0V567.0H233.0V422.0H545.0V298.0H233.0V132.0H605.0Z"/><path transform="translate(381.72,0) scale(0.030000,-0.030000)" d="M141.0 172.0Q178.0 172.0 205.0 145.0Q232.0 118.0 232.0 81.0Q232.0 43.0 205.5 16.5Q179.0 -10.0 141.0 -10.0Q103.0 -10.0 76.5 16.5Q50.0 43.0 50.0 81.0Q50.0 119.0 76.5 145.5Q103.0 172.0 141.0 172.0Z"/><path transform="translate(394.98,0) scale(0.030000,-0.030000)" d="M415.0 710.0Q467.0 710.0 513.5 698.5Q560.0 687.0 590.0 670.5Q620.0 654.0 642.0 637.0Q664.0 620.0 674.0 608.0L684.0 597.0L572.0 499.0Q570.0 502.0 566.0 506.5Q562.0 511.0 547.0 523.0Q532.0 535.0 515.5 544.5Q499.0 554.0 471.0 561.5Q443.0 569.0 413.0 569.0Q320.0 569.0 259.0 506.0Q198.0 443.0 198.0 350.0Q198.0 256.0 259.0 193.0Q320.0 130.0 413.0 130.0Q445.0 130.0 474.0 138.5Q503.0 147.0 522.0 158.5Q541.0 170.0 555.0 182.0Q569.0 194.0 576.0 202.0L582.0 211.0L690.0 115.0Q686.0 110.0 679.0 101.5Q672.0 93.0 647.0 71.5Q622.0 50.0 592.0 33.5Q562.0 17.0 513.0 3.5Q464.0 -10.0 410.0 -10.0Q254.0 -10.0 149.5 92.5Q45.0 195.0 45.0 347.0Q45.0 499.0 152.0 604.5Q259.0 710.0 415.0 710.0Z"/><path transform="translate(421.23,0) scale(0.030000,-0.030000)" d="M413.0 130.0Q505.0 130.0 566.5 193.0Q628.0 256.0 628.0 350.0Q628.0 443.0 566.5 506.0Q505.0 569.0 413.0 569.0Q320.0 569.0 259.0 506.0Q198.0 443.0 198.0 350.0Q198.0 256.0 259.0 193.0Q320.0 130.0 413.0 130.0ZM152.0 604.5Q259.0 710.0 415.0 710.0Q571.0 710.0 675.5 607.0Q780.0 504.0 780.0 352.0Q780.0 200.0 673.0 95.0Q566.0 -10.0 410.0 -10.0Q254.0 -10.0 149.5 92.5Q45.0 195.0 45.0 347.0Q45.0 499.0 152.0 604.5Z"/><path transform="translate(450.78,0) scale(0.030000,-0.030000)" d="M405.0 105.0 227.0 441.0V0.0H80.0V700.0H237.0L449.0 294.0L661.0 700.0H810.0V0.0H663.0V441.0L485.0 105.0Z"/></g></svg>