<svg xmlns="http://www.w3.org/2000/svg" viewBox="0 0 1400 900" width="1400" height="900" ><defs><linearGradient id="sc11" x1="0" y1="0" x2="0" y2="1"><stop offset="0%" stop-color="#93C3E0"/><stop offset="30%" stop-color="#A8CDDF"/><stop offset="48%" stop-color="#4E7A4A"/><stop offset="74%" stop-color="#335C36"/><stop offset="100%" stop-color="#1E3A22"/></linearGradient><radialGradient id="sc11s"><stop offset="0%" stop-color="#FFF6DC" stop-opacity=".95"/><stop offset="100%" stop-color="#FFF6DC" stop-opacity="0"/></radialGradient></defs><rect width="1400" height="900" fill="url(#sc11)"/><ellipse cx="868" cy="306" rx="588" ry="198" fill="url(#sc11s)"/><path d="M0,900 L0,382.7 Q77.8,382.7 155.6,376.0 Q233.3,376.0 311.1,390.8 Q388.9,390.8 466.7,378.6 Q544.4,378.6 622.2,374.2 Q700.0,374.2 777.8,391.0 Q855.6,391.0 933.3,417.1 Q1011.1,417.1 1088.9,411.1 Q1166.7,411.1 1244.4,409.4 Q1322.2,409.4 1400.0,382.0 L1400,900 Z" fill="#40684A"/><path d="M0,900 L0,468.8 Q77.8,468.8 155.6,515.1 Q233.3,515.1 311.1,462.5 Q388.9,462.5 466.7,498.9 Q544.4,498.9 622.2,459.9 Q700.0,459.9 777.8,470.1 Q855.6,470.1 933.3,517.4 Q1011.1,517.4 1088.9,467.7 Q1166.7,467.7 1244.4,494.9 Q1322.2,494.9 1400.0,483.4 L1400,900 Z" fill="#2C4A34"/><defs><linearGradient id="sh12" x1="0" y1="0" x2="0" y2="1"><stop offset="0%" stop-color="#00081C" stop-opacity="0"/><stop offset="55%" stop-color="#00081C" stop-opacity="0.16"/><stop offset="100%" stop-color="#00081C" stop-opacity="0.35"/></linearGradient></defs><rect width="1400" height="900" fill="url(#sh12)"/></svg>