<svg xmlns="http://www.w3.org/2000/svg" viewBox="0 0 512 512" width="512" height="512"><defs><clipPath id="a89"><circle cx="256" cy="256" r="256"/></clipPath></defs><g clip-path="url(#a89)"><circle cx="256" cy="256" r="256" fill="#070E24"/><defs><clipPath id="o87"><rect x="-512" y="-512" width="1536" height="768" transform="rotate(-3.275 256 256)"/></clipPath></defs><g clip-path="url(#o87)"><g transform="translate(71,184) scale(1.11) rotate(-1)" opacity="0.64"><circle r="1.8" fill="#FFFFFC"/></g><g transform="translate(426,132) scale(1.03) rotate(-13)" opacity="0.55"><circle r="1.8" fill="#FFFFFC"/></g><g transform="translate(495,107) scale(0.79) rotate(13)" opacity="0.92"><circle r="1.8" fill="#FFFFFC"/></g><g transform="translate(221,275) scale(1.20) rotate(-5)" opacity="0.73"><circle r="1.8" fill="#FFFFFC"/></g><g transform="translate(278,185) scale(1.12) rotate(22)" opacity="0.56"><circle r="1.8" fill="#FFFFFC"/></g><g transform="translate(49,255) scale(0.99) rotate(3)" opacity="0.69"><circle r="1.8" fill="#FFFFFC"/></g><g transform="translate(63,177) scale(1.01) rotate(16)" opacity="0.58"><circle r="1.8" fill="#FFFFFC"/></g><g transform="translate(95,267) scale(1.28) rotate(13)" opacity="0.86"><circle r="1.8" fill="#FFFFFC"/></g><g transform="translate(48,121) scale(1.24) rotate(-15)" opacity="0.92"><circle r="1.8" fill="#FFFFFC"/></g><g transform="translate(141,263) scale(1.03) rotate(-9)" opacity="0.74"><circle r="1.8" fill="#FFFFFC"/></g><g transform="translate(-5,8) scale(1.17) rotate(25)" opacity="0.75"><circle r="1.8" fill="#FFFFFC"/></g><g transform="translate(19,157) scale(1.04) rotate(4)" opacity="0.68"><circle r="1.8" fill="#FFFFFC"/></g><g transform="translate(80,30) scale(0.93) rotate(21)" opacity="0.69"><circle r="1.8" fill="#FFFFFC"/></g><g transform="translate(116,30) scale(1.30) rotate(-16)" opacity="0.72"><circle r="1.8" fill="#FFFFFC"/></g><g transform="translate(357,180) scale(1.28) rotate(23)" opacity="0.71"><circle r="1.8" fill="#FFFFFC"/></g><g transform="translate(511,155) scale(1.27) rotate(-0)" opacity="0.70"><circle r="1.8" fill="#FFFFFC"/></g><g transform="translate(497,53) scale(1.07) rotate(-3)" opacity="0.71"><circle r="1.8" fill="#FFFFFC"/></g><g transform="translate(12,65) scale(1.25) rotate(8)" opacity="0.56"><circle r="1.8" fill="#FFFFFC"/></g><rect x="253.4" y="0" width="5.2" height="34" rx="2.6" fill="#FFE9A8" opacity="0"><animate attributeName="y" values="296;296;128;128;128" keyTimes="0.0000;0.0250;0.2333;0.2350;1.0000" dur="6.0s" repeatCount="indefinite"/><animate attributeName="opacity" values="0;0;1;1;0;0" keyTimes="0.0000;0.0250;0.0450;0.2200;0.2333;1.0000" dur="6.0s" repeatCount="indefinite"/></rect><circle cx="256" r="7.5" fill="#FFE9A8" opacity="0"><animate attributeName="cy" values="296;296;128;128;128" keyTimes="0.0000;0.0250;0.2333;0.2350;1.0000" dur="6.0s" repeatCount="indefinite"/><animate attributeName="opacity" values="0;0;1;1;0;0" keyTimes="0.0000;0.0250;0.0450;0.2200;0.2333;1.0000" dur="6.0s" repeatCount="indefinite"/></circle><circle r="5.2" fill="#F5D76E" opacity="0"><animate attributeName="cx" values="256;256;345;345" keyTimes="0.0000;0.2333;0.4250;1.0000" dur="6.0s" repeatCount="indefinite"/><animate attributeName="cy" values="128;128;162;162" keyTimes="0.0000;0.2333;0.4250;1.0000" dur="6.0s" repeatCount="indefinite"/><animate attributeName="r" values="5.2;5.2;2.3400000000000003;2.3400000000000003" keyTimes="0.0000;0.2333;0.4250;1.0000" dur="6.0s" repeatCount="indefinite"/><animate attributeName="opacity" values="0;0;1;1;0;0" keyTimes="0.0000;0.2333;0.2433;0.3500;0.4250;1.0000" dur="6.0s" repeatCount="indefinite"/></circle><circle r="5.2" fill="#F5D76E" opacity="0"><animate attributeName="cx" values="256;256;358;358" keyTimes="0.0000;0.2333;0.4250;1.0000" dur="6.0s" repeatCount="indefinite"/><animate attributeName="cy" values="128;128;179;179" keyTimes="0.0000;0.2333;0.4250;1.0000" dur="6.0s" repeatCount="indefinite"/><animate attributeName="r" values="5.2;5.2;2.3400000000000003;2.3400000000000003" keyTimes="0.0000;0.2333;0.4250;1.0000" dur="6.0s" repeatCount="indefinite"/><animate attributeName="opacity" values="0;0;1;1;0;0" keyTimes="0.0000;0.2333;0.2433;0.3500;0.4250;1.0000" dur="6.0s" repeatCount="indefinite"/></circle><circle r="5.2" fill="#F5D76E" opacity="0"><animate attributeName="cx" values="256;256;363;363" keyTimes="0.0000;0.2333;0.4250;1.0000" dur="6.0s" repeatCount="indefinite"/><animate attributeName="cy" values="128;128;195;195" keyTimes="0.0000;0.2333;0.4250;1.0000" dur="6.0s" repeatCount="indefinite"/><animate attributeName="r" values="5.2;5.2;2.3400000000000003;2.3400000000000003" keyTimes="0.0000;0.2333;0.4250;1.0000" dur="6.0s" repeatCount="indefinite"/><animate attributeName="opacity" values="0;0;1;1;0;0" keyTimes="0.0000;0.2333;0.2433;0.3500;0.4250;1.0000" dur="6.0s" repeatCount="indefinite"/></circle><circle r="5.2" fill="#F5D76E" opacity="0"><animate attributeName="cx" values="256;256;322;322" keyTimes="0.0000;0.2333;0.4250;1.0000" dur="6.0s" repeatCount="indefinite"/><animate attributeName="cy" values="128;128;209;209" keyTimes="0.0000;0.2333;0.4250;1.0000" dur="6.0s" repeatCount="indefinite"/><animate attributeName="r" values="5.2;5.2;2.3400000000000003;2.3400000000000003" keyTimes="0.0000;0.2333;0.4250;1.0000" dur="6.0s" repeatCount="indefinite"/><animate attributeName="opacity" values="0;0;1;1;0;0" keyTimes="0.0000;0.2333;0.2433;0.3500;0.4250;1.0000" dur="6.0s" repeatCount="indefinite"/></circle><circle r="5.2" fill="#F5D76E" opacity="0"><animate attributeName="cx" values="256;256;316;316" keyTimes="0.0000;0.2333;0.4250;1.0000" dur="6.0s" repeatCount="indefinite"/><animate attributeName="cy" values="128;128;221;221" keyTimes="0.0000;0.2333;0.4250;1.0000" dur="6.0s" repeatCount="indefinite"/><animate attributeName="r" values="5.2;5.2;2.3400000000000003;2.3400000000000003" keyTimes="0.0000;0.2333;0.4250;1.0000" dur="6.0s" repeatCount="indefinite"/><animate attributeName="opacity" values="0;0;1;1;0;0" keyTimes="0.0000;0.2333;0.2433;0.3500;0.4250;1.0000" dur="6.0s" repeatCount="indefinite"/></circle><circle r="5.2" fill="#F5D76E" opacity="0"><animate attributeName="cx" values="256;256;299;299" keyTimes="0.0000;0.2333;0.4250;1.0000" dur="6.0s" repeatCount="indefinite"/><animate attributeName="cy" values="128;128;229;229" keyTimes="0.0000;0.2333;0.4250;1.0000" dur="6.0s" repeatCount="indefinite"/><animate attributeName="r" values="5.2;5.2;2.3400000000000003;2.3400000000000003" keyTimes="0.0000;0.2333;0.4250;1.0000" dur="6.0s" repeatCount="indefinite"/><animate attributeName="opacity" values="0;0;1;1;0;0" keyTimes="0.0000;0.2333;0.2433;0.3500;0.4250;1.0000" dur="6.0s" repeatCount="indefinite"/></circle><circle r="5.2" fill="#F5D76E" opacity="0"><animate attributeName="cx" values="256;256;267;267" keyTimes="0.0000;0.2333;0.4250;1.0000" dur="6.0s" repeatCount="indefinite"/><animate attributeName="cy" values="128;128;233;233" keyTimes="0.0000;0.2333;0.4250;1.0000" dur="6.0s" repeatCount="indefinite"/><animate attributeName="r" values="5.2;5.2;2.3400000000000003;2.3400000000000003" keyTimes="0.0000;0.2333;0.4250;1.0000" dur="6.0s" repeatCount="indefinite"/><animate attributeName="opacity" values="0;0;1;1;0;0" keyTimes="0.0000;0.2333;0.2433;0.3500;0.4250;1.0000" dur="6.0s" repeatCount="indefinite"/></circle><circle r="5.2" fill="#F5D76E" opacity="0"><animate attributeName="cx" values="256;256;243;243" keyTimes="0.0000;0.2333;0.4250;1.0000" dur="6.0s" repeatCount="indefinite"/><animate attributeName="cy" values="128;128;233;233" keyTimes="0.0000;0.2333;0.4250;1.0000" dur="6.0s" repeatCount="indefinite"/><animate attributeName="r" values="5.2;5.2;2.3400000000000003;2.3400000000000003" keyTimes="0.0000;0.2333;0.4250;1.0000" dur="6.0s" repeatCount="indefinite"/><animate attributeName="opacity" values="0;0;1;1;0;0" keyTimes="0.0000;0.2333;0.2433;0.3500;0.4250;1.0000" dur="6.0s" repeatCount="indefinite"/></circle><circle r="5.2" fill="#F5D76E" opacity="0"><animate attributeName="cx" values="256;256;213;213" keyTimes="0.0000;0.2333;0.4250;1.0000" dur="6.0s" repeatCount="indefinite"/><animate attributeName="cy" values="128;128;229;229" keyTimes="0.0000;0.2333;0.4250;1.0000" dur="6.0s" repeatCount="indefinite"/><animate attributeName="r" values="5.2;5.2;2.3400000000000003;2.3400000000000003" keyTimes="0.0000;0.2333;0.4250;1.0000" dur="6.0s" repeatCount="indefinite"/><animate attributeName="opacity" values="0;0;1;1;0;0" keyTimes="0.0000;0.2333;0.2433;0.3500;0.4250;1.0000" dur="6.0s" repeatCount="indefinite"/></circle><circle r="5.2" fill="#F5D76E" opacity="0"><animate attributeName="cx" values="256;256;206;206" keyTimes="0.0000;0.2333;0.4250;1.0000" dur="6.0s" repeatCount="indefinite"/><animate attributeName="cy" values="128;128;221;221" keyTimes="0.0000;0.2333;0.4250;1.0000" dur="6.0s" repeatCount="indefinite"/><animate attributeName="r" values="5.2;5.2;2.3400000000000003;2.3400000000000003" keyTimes="0.0000;0.2333;0.4250;1.0000" dur="6.0s" repeatCount="indefinite"/><animate attributeName="opacity" values="0;0;1;1;0;0" keyTimes="0.0000;0.2333;0.2433;0.3500;0.4250;1.0000" dur="6.0s" repeatCount="indefinite"/></circle><circle r="5.2" fill="#F5D76E" opacity="0"><animate attributeName="cx" values="256;256;178;178" keyTimes="0.0000;0.2333;0.4250;1.0000" dur="6.0s" repeatCount="indefinite"/><animate attributeName="cy" values="128;128;209;209" keyTimes="0.0000;0.2333;0.4250;1.0000" dur="6.0s" repeatCount="indefinite"/><animate attributeName="r" values="5.2;5.2;2.3400000000000003;2.3400000000000003" keyTimes="0.0000;0.2333;0.4250;1.0000" dur="6.0s" repeatCount="indefinite"/><animate attributeName="opacity" values="0;0;1;1;0;0" keyTimes="0.0000;0.2333;0.2433;0.3500;0.4250;1.0000" dur="6.0s" repeatCount="indefinite"/></circle><circle r="5.2" fill="#F5D76E" opacity="0"><animate attributeName="cx" values="256;256;149;149" keyTimes="0.0000;0.2333;0.4250;1.0000" dur="6.0s" repeatCount="indefinite"/><animate attributeName="cy" values="128;128;195;195" keyTimes="0.0000;0.2333;0.4250;1.0000" dur="6.0s" repeatCount="indefinite"/><animate attributeName="r" values="5.2;5.2;2.3400000000000003;2.3400000000000003" keyTimes="0.0000;0.2333;0.4250;1.0000" dur="6.0s" repeatCount="indefinite"/><animate attributeName="opacity" values="0;0;1;1;0;0" keyTimes="0.0000;0.2333;0.2433;0.3500;0.4250;1.0000" dur="6.0s" repeatCount="indefinite"/></circle><circle r="5.2" fill="#F5D76E" opacity="0"><animate attributeName="cx" values="256;256;170;170" keyTimes="0.0000;0.2333;0.4250;1.0000" dur="6.0s" repeatCount="indefinite"/><animate attributeName="cy" values="128;128;179;179" keyTimes="0.0000;0.2333;0.4250;1.0000" dur="6.0s" repeatCount="indefinite"/><animate attributeName="r" values="5.2;5.2;2.3400000000000003;2.3400000000000003" keyTimes="0.0000;0.2333;0.4250;1.0000" dur="6.0s" repeatCount="indefinite"/><animate attributeName="opacity" values="0;0;1;1;0;0" keyTimes="0.0000;0.2333;0.2433;0.3500;0.4250;1.0000" dur="6.0s" repeatCount="indefinite"/></circle><circle r="5.2" fill="#F5D76E" opacity="0"><animate attributeName="cx" values="256;256;151;151" keyTimes="0.0000;0.2333;0.4250;1.0000" dur="6.0s" repeatCount="indefinite"/><animate attributeName="cy" values="128;128;162;162" keyTimes="0.0000;0.2333;0.4250;1.0000" dur="6.0s" repeatCount="indefinite"/><animate attributeName="r" values="5.2;5.2;2.3400000000000003;2.3400000000000003" keyTimes="0.0000;0.2333;0.4250;1.0000" dur="6.0s" repeatCount="indefinite"/><animate attributeName="opacity" values="0;0;1;1;0;0" keyTimes="0.0000;0.2333;0.2433;0.3500;0.4250;1.0000" dur="6.0s" repeatCount="indefinite"/></circle><circle r="5.2" fill="#F5D76E" opacity="0"><animate attributeName="cx" values="256;256;139;139" keyTimes="0.0000;0.2333;0.4250;1.0000" dur="6.0s" repeatCount="indefinite"/><animate attributeName="cy" values="128;128;145;145" keyTimes="0.0000;0.2333;0.4250;1.0000" dur="6.0s" repeatCount="indefinite"/><animate attributeName="r" values="5.2;5.2;2.3400000000000003;2.3400000000000003" keyTimes="0.0000;0.2333;0.4250;1.0000" dur="6.0s" repeatCount="indefinite"/><animate attributeName="opacity" values="0;0;1;1;0;0" keyTimes="0.0000;0.2333;0.2433;0.3500;0.4250;1.0000" dur="6.0s" repeatCount="indefinite"/></circle><circle r="5.2" fill="#F5D76E" opacity="0"><animate attributeName="cx" values="256;256;178;178" keyTimes="0.0000;0.2333;0.4250;1.0000" dur="6.0s" repeatCount="indefinite"/><animate attributeName="cy" values="128;128;129;129" keyTimes="0.0000;0.2333;0.4250;1.0000" dur="6.0s" repeatCount="indefinite"/><animate attributeName="r" values="5.2;5.2;2.3400000000000003;2.3400000000000003" keyTimes="0.0000;0.2333;0.4250;1.0000" dur="6.0s" repeatCount="indefinite"/><animate attributeName="opacity" values="0;0;1;1;0;0" keyTimes="0.0000;0.2333;0.2433;0.3500;0.4250;1.0000" dur="6.0s" repeatCount="indefinite"/></circle><circle r="5.2" fill="#F5D76E" opacity="0"><animate attributeName="cx" values="256;256;178;178" keyTimes="0.0000;0.2333;0.4250;1.0000" dur="6.0s" repeatCount="indefinite"/><animate attributeName="cy" values="128;128;115;115" keyTimes="0.0000;0.2333;0.4250;1.0000" dur="6.0s" repeatCount="indefinite"/><animate attributeName="r" values="5.2;5.2;2.3400000000000003;2.3400000000000003" keyTimes="0.0000;0.2333;0.4250;1.0000" dur="6.0s" repeatCount="indefinite"/><animate attributeName="opacity" values="0;0;1;1;0;0" keyTimes="0.0000;0.2333;0.2433;0.3500;0.4250;1.0000" dur="6.0s" repeatCount="indefinite"/></circle><circle r="5.2" fill="#F5D76E" opacity="0"><animate attributeName="cx" values="256;256;187;187" keyTimes="0.0000;0.2333;0.4250;1.0000" dur="6.0s" repeatCount="indefinite"/><animate attributeName="cy" values="128;128;103;103" keyTimes="0.0000;0.2333;0.4250;1.0000" dur="6.0s" repeatCount="indefinite"/><animate attributeName="r" values="5.2;5.2;2.3400000000000003;2.3400000000000003" keyTimes="0.0000;0.2333;0.4250;1.0000" dur="6.0s" repeatCount="indefinite"/><animate attributeName="opacity" values="0;0;1;1;0;0" keyTimes="0.0000;0.2333;0.2433;0.3500;0.4250;1.0000" dur="6.0s" repeatCount="indefinite"/></circle><circle r="5.2" fill="#F5D76E" opacity="0"><animate attributeName="cx" values="256;256;225;225" keyTimes="0.0000;0.2333;0.4250;1.0000" dur="6.0s" repeatCount="indefinite"/><animate attributeName="cy" values="128;128;95;95" keyTimes="0.0000;0.2333;0.4250;1.0000" dur="6.0s" repeatCount="indefinite"/><animate attributeName="r" values="5.2;5.2;2.3400000000000003;2.3400000000000003" keyTimes="0.0000;0.2333;0.4250;1.0000" dur="6.0s" repeatCount="indefinite"/><animate attributeName="opacity" values="0;0;1;1;0;0" keyTimes="0.0000;0.2333;0.2433;0.3500;0.4250;1.0000" dur="6.0s" repeatCount="indefinite"/></circle><circle r="5.2" fill="#F5D76E" opacity="0"><animate attributeName="cx" values="256;256;243;243" keyTimes="0.0000;0.2333;0.4250;1.0000" dur="6.0s" repeatCount="indefinite"/><animate attributeName="cy" values="128;128;91;91" keyTimes="0.0000;0.2333;0.4250;1.0000" dur="6.0s" repeatCount="indefinite"/><animate attributeName="r" values="5.2;5.2;2.3400000000000003;2.3400000000000003" keyTimes="0.0000;0.2333;0.4250;1.0000" dur="6.0s" repeatCount="indefinite"/><animate attributeName="opacity" values="0;0;1;1;0;0" keyTimes="0.0000;0.2333;0.2433;0.3500;0.4250;1.0000" dur="6.0s" repeatCount="indefinite"/></circle><circle r="5.2" fill="#F5D76E" opacity="0"><animate attributeName="cx" values="256;256;271;271" keyTimes="0.0000;0.2333;0.4250;1.0000" dur="6.0s" repeatCount="indefinite"/><animate attributeName="cy" values="128;128;91;91" keyTimes="0.0000;0.2333;0.4250;1.0000" dur="6.0s" repeatCount="indefinite"/><animate attributeName="r" values="5.2;5.2;2.3400000000000003;2.3400000000000003" keyTimes="0.0000;0.2333;0.4250;1.0000" dur="6.0s" repeatCount="indefinite"/><animate attributeName="opacity" values="0;0;1;1;0;0" keyTimes="0.0000;0.2333;0.2433;0.3500;0.4250;1.0000" dur="6.0s" repeatCount="indefinite"/></circle><circle r="5.2" fill="#F5D76E" opacity="0"><animate attributeName="cx" values="256;256;287;287" keyTimes="0.0000;0.2333;0.4250;1.0000" dur="6.0s" repeatCount="indefinite"/><animate attributeName="cy" values="128;128;95;95" keyTimes="0.0000;0.2333;0.4250;1.0000" dur="6.0s" repeatCount="indefinite"/><animate attributeName="r" values="5.2;5.2;2.3400000000000003;2.3400000000000003" keyTimes="0.0000;0.2333;0.4250;1.0000" dur="6.0s" repeatCount="indefinite"/><animate attributeName="opacity" values="0;0;1;1;0;0" keyTimes="0.0000;0.2333;0.2433;0.3500;0.4250;1.0000" dur="6.0s" repeatCount="indefinite"/></circle><circle r="5.2" fill="#F5D76E" opacity="0"><animate attributeName="cx" values="256;256;316;316" keyTimes="0.0000;0.2333;0.4250;1.0000" dur="6.0s" repeatCount="indefinite"/><animate attributeName="cy" values="128;128;103;103" keyTimes="0.0000;0.2333;0.4250;1.0000" dur="6.0s" repeatCount="indefinite"/><animate attributeName="r" values="5.2;5.2;2.3400000000000003;2.3400000000000003" keyTimes="0.0000;0.2333;0.4250;1.0000" dur="6.0s" repeatCount="indefinite"/><animate attributeName="opacity" values="0;0;1;1;0;0" keyTimes="0.0000;0.2333;0.2433;0.3500;0.4250;1.0000" dur="6.0s" repeatCount="indefinite"/></circle><circle r="5.2" fill="#F5D76E" opacity="0"><animate attributeName="cx" values="256;256;347;347" keyTimes="0.0000;0.2333;0.4250;1.0000" dur="6.0s" repeatCount="indefinite"/><animate attributeName="cy" values="128;128;115;115" keyTimes="0.0000;0.2333;0.4250;1.0000" dur="6.0s" repeatCount="indefinite"/><animate attributeName="r" values="5.2;5.2;2.3400000000000003;2.3400000000000003" keyTimes="0.0000;0.2333;0.4250;1.0000" dur="6.0s" repeatCount="indefinite"/><animate attributeName="opacity" values="0;0;1;1;0;0" keyTimes="0.0000;0.2333;0.2433;0.3500;0.4250;1.0000" dur="6.0s" repeatCount="indefinite"/></circle><circle r="5.2" fill="#F5D76E" opacity="0"><animate attributeName="cx" values="256;256;334;334" keyTimes="0.0000;0.2333;0.4250;1.0000" dur="6.0s" repeatCount="indefinite"/><animate attributeName="cy" values="128;128;129;129" keyTimes="0.0000;0.2333;0.4250;1.0000" dur="6.0s" repeatCount="indefinite"/><animate attributeName="r" values="5.2;5.2;2.3400000000000003;2.3400000000000003" keyTimes="0.0000;0.2333;0.4250;1.0000" dur="6.0s" repeatCount="indefinite"/><animate attributeName="opacity" values="0;0;1;1;0;0" keyTimes="0.0000;0.2333;0.2433;0.3500;0.4250;1.0000" dur="6.0s" repeatCount="indefinite"/></circle><circle r="5.2" fill="#F5D76E" opacity="0"><animate attributeName="cx" values="256;256;358;358" keyTimes="0.0000;0.2333;0.4250;1.0000" dur="6.0s" repeatCount="indefinite"/><animate attributeName="cy" values="128;128;145;145" keyTimes="0.0000;0.2333;0.4250;1.0000" dur="6.0s" repeatCount="indefinite"/><animate attributeName="r" values="5.2;5.2;2.3400000000000003;2.3400000000000003" keyTimes="0.0000;0.2333;0.4250;1.0000" dur="6.0s" repeatCount="indefinite"/><animate attributeName="opacity" values="0;0;1;1;0;0" keyTimes="0.0000;0.2333;0.2433;0.3500;0.4250;1.0000" dur="6.0s" repeatCount="indefinite"/></circle><circle cx="256" cy="128" r="30" fill="#FFFFFC" opacity="0"><animate attributeName="opacity" values="0;0;0.85;0;0" keyTimes="0.0000;0.2333;0.2467;0.3167;1.0000" dur="6.0s" repeatCount="indefinite"/></circle><rect x="150.4" y="0" width="5.2" height="34" rx="2.6" fill="#FFC8A8" opacity="0"><animate attributeName="y" values="296;296;168;168;168" keyTimes="0.0000;0.3917;0.6000;0.6017;1.0000" dur="6.0s" repeatCount="indefinite"/><animate attributeName="opacity" values="0;0;1;1;0;0" keyTimes="0.0000;0.3917;0.4117;0.5867;0.6000;1.0000" dur="6.0s" repeatCount="indefinite"/></rect><circle cx="153" r="5.5" fill="#FFC8A8" opacity="0"><animate attributeName="cy" values="296;296;168;168;168" keyTimes="0.0000;0.3917;0.6000;0.6017;1.0000" dur="6.0s" repeatCount="indefinite"/><animate attributeName="opacity" values="0;0;1;1;0;0" keyTimes="0.0000;0.3917;0.4117;0.5867;0.6000;1.0000" dur="6.0s" repeatCount="indefinite"/></circle><circle r="4.0" fill="#FF9A5A" opacity="0"><animate attributeName="cx" values="153;153;204;204" keyTimes="0.0000;0.6000;0.7917;1.0000" dur="6.0s" repeatCount="indefinite"/><animate attributeName="cy" values="168;168;202;202" keyTimes="0.0000;0.6000;0.7917;1.0000" dur="6.0s" repeatCount="indefinite"/><animate attributeName="r" values="4.0;4.0;1.8;1.8" keyTimes="0.0000;0.6000;0.7917;1.0000" dur="6.0s" repeatCount="indefinite"/><animate attributeName="opacity" values="0;0;1;1;0;0" keyTimes="0.0000;0.6000;0.6100;0.7167;0.7917;1.0000" dur="6.0s" repeatCount="indefinite"/></circle><circle r="4.0" fill="#FF9A5A" opacity="0"><animate attributeName="cx" values="153;153;209;209" keyTimes="0.0000;0.6000;0.7917;1.0000" dur="6.0s" repeatCount="indefinite"/><animate attributeName="cy" values="168;168;218;218" keyTimes="0.0000;0.6000;0.7917;1.0000" dur="6.0s" repeatCount="indefinite"/><animate attributeName="r" values="4.0;4.0;1.8;1.8" keyTimes="0.0000;0.6000;0.7917;1.0000" dur="6.0s" repeatCount="indefinite"/><animate attributeName="opacity" values="0;0;1;1;0;0" keyTimes="0.0000;0.6000;0.6100;0.7167;0.7917;1.0000" dur="6.0s" repeatCount="indefinite"/></circle><circle r="4.0" fill="#FF9A5A" opacity="0"><animate attributeName="cx" values="153;153;202;202" keyTimes="0.0000;0.6000;0.7917;1.0000" dur="6.0s" repeatCount="indefinite"/><animate attributeName="cy" values="168;168;231;231" keyTimes="0.0000;0.6000;0.7917;1.0000" dur="6.0s" repeatCount="indefinite"/><animate attributeName="r" values="4.0;4.0;1.8;1.8" keyTimes="0.0000;0.6000;0.7917;1.0000" dur="6.0s" repeatCount="indefinite"/><animate attributeName="opacity" values="0;0;1;1;0;0" keyTimes="0.0000;0.6000;0.6100;0.7167;0.7917;1.0000" dur="6.0s" repeatCount="indefinite"/></circle><circle r="4.0" fill="#FF9A5A" opacity="0"><animate attributeName="cx" values="153;153;172;172" keyTimes="0.0000;0.6000;0.7917;1.0000" dur="6.0s" repeatCount="indefinite"/><animate attributeName="cy" values="168;168;240;240" keyTimes="0.0000;0.6000;0.7917;1.0000" dur="6.0s" repeatCount="indefinite"/><animate attributeName="r" values="4.0;4.0;1.8;1.8" keyTimes="0.0000;0.6000;0.7917;1.0000" dur="6.0s" repeatCount="indefinite"/><animate attributeName="opacity" values="0;0;1;1;0;0" keyTimes="0.0000;0.6000;0.6100;0.7167;0.7917;1.0000" dur="6.0s" repeatCount="indefinite"/></circle><circle r="4.0" fill="#FF9A5A" opacity="0"><animate attributeName="cx" values="153;153;153;153" keyTimes="0.0000;0.6000;0.7917;1.0000" dur="6.0s" repeatCount="indefinite"/><animate attributeName="cy" values="168;168;243;243" keyTimes="0.0000;0.6000;0.7917;1.0000" dur="6.0s" repeatCount="indefinite"/><animate attributeName="r" values="4.0;4.0;1.8;1.8" keyTimes="0.0000;0.6000;0.7917;1.0000" dur="6.0s" repeatCount="indefinite"/><animate attributeName="opacity" values="0;0;1;1;0;0" keyTimes="0.0000;0.6000;0.6100;0.7167;0.7917;1.0000" dur="6.0s" repeatCount="indefinite"/></circle><circle r="4.0" fill="#FF9A5A" opacity="0"><animate attributeName="cx" values="153;153;126;126" keyTimes="0.0000;0.6000;0.7917;1.0000" dur="6.0s" repeatCount="indefinite"/><animate attributeName="cy" values="168;168;240;240" keyTimes="0.0000;0.6000;0.7917;1.0000" dur="6.0s" repeatCount="indefinite"/><animate attributeName="r" values="4.0;4.0;1.8;1.8" keyTimes="0.0000;0.6000;0.7917;1.0000" dur="6.0s" repeatCount="indefinite"/><animate attributeName="opacity" values="0;0;1;1;0;0" keyTimes="0.0000;0.6000;0.6100;0.7167;0.7917;1.0000" dur="6.0s" repeatCount="indefinite"/></circle><circle r="4.0" fill="#FF9A5A" opacity="0"><animate attributeName="cx" values="153;153;117;117" keyTimes="0.0000;0.6000;0.7917;1.0000" dur="6.0s" repeatCount="indefinite"/><animate attributeName="cy" values="168;168;231;231" keyTimes="0.0000;0.6000;0.7917;1.0000" dur="6.0s" repeatCount="indefinite"/><animate attributeName="r" values="4.0;4.0;1.8;1.8" keyTimes="0.0000;0.6000;0.7917;1.0000" dur="6.0s" repeatCount="indefinite"/><animate attributeName="opacity" values="0;0;1;1;0;0" keyTimes="0.0000;0.6000;0.6100;0.7167;0.7917;1.0000" dur="6.0s" repeatCount="indefinite"/></circle><circle r="4.0" fill="#FF9A5A" opacity="0"><animate attributeName="cx" values="153;153;97;97" keyTimes="0.0000;0.6000;0.7917;1.0000" dur="6.0s" repeatCount="indefinite"/><animate attributeName="cy" values="168;168;218;218" keyTimes="0.0000;0.6000;0.7917;1.0000" dur="6.0s" repeatCount="indefinite"/><animate attributeName="r" values="4.0;4.0;1.8;1.8" keyTimes="0.0000;0.6000;0.7917;1.0000" dur="6.0s" repeatCount="indefinite"/><animate attributeName="opacity" values="0;0;1;1;0;0" keyTimes="0.0000;0.6000;0.6100;0.7167;0.7917;1.0000" dur="6.0s" repeatCount="indefinite"/></circle><circle r="4.0" fill="#FF9A5A" opacity="0"><animate attributeName="cx" values="153;153;84;84" keyTimes="0.0000;0.6000;0.7917;1.0000" dur="6.0s" repeatCount="indefinite"/><animate attributeName="cy" values="168;168;202;202" keyTimes="0.0000;0.6000;0.7917;1.0000" dur="6.0s" repeatCount="indefinite"/><animate attributeName="r" values="4.0;4.0;1.8;1.8" keyTimes="0.0000;0.6000;0.7917;1.0000" dur="6.0s" repeatCount="indefinite"/><animate attributeName="opacity" values="0;0;1;1;0;0" keyTimes="0.0000;0.6000;0.6100;0.7167;0.7917;1.0000" dur="6.0s" repeatCount="indefinite"/></circle><circle r="4.0" fill="#FF9A5A" opacity="0"><animate attributeName="cx" values="153;153;106;106" keyTimes="0.0000;0.6000;0.7917;1.0000" dur="6.0s" repeatCount="indefinite"/><animate attributeName="cy" values="168;168;186;186" keyTimes="0.0000;0.6000;0.7917;1.0000" dur="6.0s" repeatCount="indefinite"/><animate attributeName="r" values="4.0;4.0;1.8;1.8" keyTimes="0.0000;0.6000;0.7917;1.0000" dur="6.0s" repeatCount="indefinite"/><animate attributeName="opacity" values="0;0;1;1;0;0" keyTimes="0.0000;0.6000;0.6100;0.7167;0.7917;1.0000" dur="6.0s" repeatCount="indefinite"/></circle><circle r="4.0" fill="#FF9A5A" opacity="0"><animate attributeName="cx" values="153;153;110;110" keyTimes="0.0000;0.6000;0.7917;1.0000" dur="6.0s" repeatCount="indefinite"/><animate attributeName="cy" values="168;168;173;173" keyTimes="0.0000;0.6000;0.7917;1.0000" dur="6.0s" repeatCount="indefinite"/><animate attributeName="r" values="4.0;4.0;1.8;1.8" keyTimes="0.0000;0.6000;0.7917;1.0000" dur="6.0s" repeatCount="indefinite"/><animate attributeName="opacity" values="0;0;1;1;0;0" keyTimes="0.0000;0.6000;0.6100;0.7167;0.7917;1.0000" dur="6.0s" repeatCount="indefinite"/></circle><circle r="4.0" fill="#FF9A5A" opacity="0"><animate attributeName="cx" values="153;153;126;126" keyTimes="0.0000;0.6000;0.7917;1.0000" dur="6.0s" repeatCount="indefinite"/><animate attributeName="cy" values="168;168;164;164" keyTimes="0.0000;0.6000;0.7917;1.0000" dur="6.0s" repeatCount="indefinite"/><animate attributeName="r" values="4.0;4.0;1.8;1.8" keyTimes="0.0000;0.6000;0.7917;1.0000" dur="6.0s" repeatCount="indefinite"/><animate attributeName="opacity" values="0;0;1;1;0;0" keyTimes="0.0000;0.6000;0.6100;0.7167;0.7917;1.0000" dur="6.0s" repeatCount="indefinite"/></circle><circle r="4.0" fill="#FF9A5A" opacity="0"><animate attributeName="cx" values="153;153;153;153" keyTimes="0.0000;0.6000;0.7917;1.0000" dur="6.0s" repeatCount="indefinite"/><animate attributeName="cy" values="168;168;161;161" keyTimes="0.0000;0.6000;0.7917;1.0000" dur="6.0s" repeatCount="indefinite"/><animate attributeName="r" values="4.0;4.0;1.8;1.8" keyTimes="0.0000;0.6000;0.7917;1.0000" dur="6.0s" repeatCount="indefinite"/><animate attributeName="opacity" values="0;0;1;1;0;0" keyTimes="0.0000;0.6000;0.6100;0.7167;0.7917;1.0000" dur="6.0s" repeatCount="indefinite"/></circle><circle r="4.0" fill="#FF9A5A" opacity="0"><animate attributeName="cx" values="153;153;176;176" keyTimes="0.0000;0.6000;0.7917;1.0000" dur="6.0s" repeatCount="indefinite"/><animate attributeName="cy" values="168;168;164;164" keyTimes="0.0000;0.6000;0.7917;1.0000" dur="6.0s" repeatCount="indefinite"/><animate attributeName="r" values="4.0;4.0;1.8;1.8" keyTimes="0.0000;0.6000;0.7917;1.0000" dur="6.0s" repeatCount="indefinite"/><animate attributeName="opacity" values="0;0;1;1;0;0" keyTimes="0.0000;0.6000;0.6100;0.7167;0.7917;1.0000" dur="6.0s" repeatCount="indefinite"/></circle><circle r="4.0" fill="#FF9A5A" opacity="0"><animate attributeName="cx" values="153;153;202;202" keyTimes="0.0000;0.6000;0.7917;1.0000" dur="6.0s" repeatCount="indefinite"/><animate attributeName="cy" values="168;168;173;173" keyTimes="0.0000;0.6000;0.7917;1.0000" dur="6.0s" repeatCount="indefinite"/><animate attributeName="r" values="4.0;4.0;1.8;1.8" keyTimes="0.0000;0.6000;0.7917;1.0000" dur="6.0s" repeatCount="indefinite"/><animate attributeName="opacity" values="0;0;1;1;0;0" keyTimes="0.0000;0.6000;0.6100;0.7167;0.7917;1.0000" dur="6.0s" repeatCount="indefinite"/></circle><circle r="4.0" fill="#FF9A5A" opacity="0"><animate attributeName="cx" values="153;153;200;200" keyTimes="0.0000;0.6000;0.7917;1.0000" dur="6.0s" repeatCount="indefinite"/><animate attributeName="cy" values="168;168;186;186" keyTimes="0.0000;0.6000;0.7917;1.0000" dur="6.0s" repeatCount="indefinite"/><animate attributeName="r" values="4.0;4.0;1.8;1.8" keyTimes="0.0000;0.6000;0.7917;1.0000" dur="6.0s" repeatCount="indefinite"/><animate attributeName="opacity" values="0;0;1;1;0;0" keyTimes="0.0000;0.6000;0.6100;0.7167;0.7917;1.0000" dur="6.0s" repeatCount="indefinite"/></circle><circle cx="153" cy="168" r="30" fill="#FFFFFC" opacity="0"><animate attributeName="opacity" values="0;0;0.85;0;0" keyTimes="0.0000;0.6000;0.6133;0.6833;1.0000" dur="6.0s" repeatCount="indefinite"/></circle><g fill="#FFE9A8" opacity="0" transform="translate(181,180)"><path transform="translate(0.00,0) scale(0.062000,-0.062000)" d="M51.0 111.0 293.0 350.0Q337.0 393.0 354.0 423.0Q371.0 453.0 371.0 489.0Q371.0 528.0 343.5 554.5Q316.0 581.0 273.0 581.0Q235.0 581.0 203.0 558.5Q171.0 536.0 158.0 514.0L145.0 492.0L40.0 560.0Q42.0 566.0 47.0 576.0Q52.0 586.0 72.0 612.0Q92.0 638.0 117.5 658.0Q143.0 678.0 188.5 694.0Q234.0 710.0 287.0 710.0Q386.0 710.0 451.0 651.5Q516.0 593.0 516.0 506.0Q516.0 438.0 487.0 385.5Q458.0 333.0 390.0 268.0L242.0 125.0H511.0V0.0H51.0Z"/><path transform="translate(38.13,0) scale(0.062000,-0.062000)" d="M202.0 470.0V230.0Q202.0 181.0 231.0 152.0Q260.0 123.0 307.0 123.0Q354.0 123.0 383.0 152.5Q412.0 182.0 412.0 230.0V470.0Q412.0 518.0 383.0 547.5Q354.0 577.0 307.0 577.0Q260.0 577.0 231.0 547.5Q202.0 518.0 202.0 470.0ZM57.0 240.0V455.0Q57.0 573.0 128.0 641.5Q199.0 710.0 309.0 710.0Q420.0 710.0 488.5 644.0Q557.0 578.0 557.0 460.0V245.0Q557.0 127.0 485.5 58.5Q414.0 -10.0 304.0 -10.0Q194.0 -10.0 125.5 56.0Q57.0 122.0 57.0 240.0Z"/><path transform="translate(79.36,0) scale(0.062000,-0.062000)" d="M51.0 111.0 293.0 350.0Q337.0 393.0 354.0 423.0Q371.0 453.0 371.0 489.0Q371.0 528.0 343.5 554.5Q316.0 581.0 273.0 581.0Q235.0 581.0 203.0 558.5Q171.0 536.0 158.0 514.0L145.0 492.0L40.0 560.0Q42.0 566.0 47.0 576.0Q52.0 586.0 72.0 612.0Q92.0 638.0 117.5 658.0Q143.0 678.0 188.5 694.0Q234.0 710.0 287.0 710.0Q386.0 710.0 451.0 651.5Q516.0 593.0 516.0 506.0Q516.0 438.0 487.0 385.5Q458.0 333.0 390.0 268.0L242.0 125.0H511.0V0.0H51.0Z"/><path transform="translate(117.49,0) scale(0.062000,-0.062000)" d="M68.0 0.0 340.0 571.0H33.0V700.0H503.0V600.0L225.0 0.0Z"/><animate attributeName="opacity" values="0;0;1;1;0;0" keyTimes="0.0000;0.2833;0.3583;0.8667;0.9750;1.0000" dur="6.0s" repeatCount="indefinite"/></g><circle cx="276" cy="179" r="4.1" fill="#FFD24A" opacity="0"><animate attributeName="opacity" values="0;0;0.95;0;0" keyTimes="0.0000;0.7245;0.7662;0.8578;1.0000" dur="6.0s" repeatCount="indefinite"/></circle><circle cx="296" cy="192" r="3.1" fill="#FFD24A" opacity="0"><animate attributeName="opacity" values="0;0;0.95;0;0" keyTimes="0.0000;0.3797;0.4214;0.5131;1.0000" dur="6.0s" repeatCount="indefinite"/></circle><circle cx="330" cy="173" r="2.4" fill="#FFD24A" opacity="0"><animate attributeName="opacity" values="0;0;0.95;0;0" keyTimes="0.0000;0.7721;0.8137;0.9054;1.0000" dur="6.0s" repeatCount="indefinite"/></circle><circle cx="251" cy="144" r="3.3" fill="#FFD24A" opacity="0"><animate attributeName="opacity" values="0;0;0.95;0;0" keyTimes="0.0000;0.6114;0.6530;0.7447;1.0000" dur="6.0s" repeatCount="indefinite"/></circle><circle cx="175" cy="142" r="4.0" fill="#FFD24A" opacity="0"><animate attributeName="opacity" values="0;0;0.95;0;0" keyTimes="0.0000;0.4924;0.5341;0.6258;1.0000" dur="6.0s" repeatCount="indefinite"/></circle><circle cx="300" cy="137" r="2.5" fill="#FFD24A" opacity="0"><animate attributeName="opacity" values="0;0;0.95;0;0" keyTimes="0.0000;0.7254;0.7670;0.8587;1.0000" dur="6.0s" repeatCount="indefinite"/></circle><circle cx="276" cy="135" r="3.9" fill="#FFD24A" opacity="0"><animate attributeName="opacity" values="0;0;0.95;0;0" keyTimes="0.0000;0.3675;0.4091;0.5008;1.0000" dur="6.0s" repeatCount="indefinite"/></circle><circle cx="208" cy="142" r="3.9" fill="#FFD24A" opacity="0"><animate attributeName="opacity" values="0;0;0.95;0;0" keyTimes="0.0000;0.8088;0.8504;0.9421;1.0000" dur="6.0s" repeatCount="indefinite"/></circle><circle cx="221" cy="195" r="3.6" fill="#FFD24A" opacity="0"><animate attributeName="opacity" values="0;0;0.95;0;0" keyTimes="0.0000;0.6093;0.6510;0.7427;1.0000" dur="6.0s" repeatCount="indefinite"/></circle><circle cx="207" cy="194" r="4.1" fill="#FFD24A" opacity="0"><animate attributeName="opacity" values="0;0;0.95;0;0" keyTimes="0.0000;0.6775;0.7191;0.8108;1.0000" dur="6.0s" repeatCount="indefinite"/></circle><circle cx="322" cy="148" r="2.5" fill="#FFD24A" opacity="0"><animate attributeName="opacity" values="0;0;0.95;0;0" keyTimes="0.0000;0.5292;0.5709;0.6625;1.0000" dur="6.0s" repeatCount="indefinite"/></circle><circle cx="197" cy="131" r="3.4" fill="#FFD24A" opacity="0"><animate attributeName="opacity" values="0;0;0.95;0;0" keyTimes="0.0000;0.5023;0.5439;0.6356;1.0000" dur="6.0s" repeatCount="indefinite"/></circle><circle cx="173" cy="175" r="2.8" fill="#FFD24A" opacity="0"><animate attributeName="opacity" values="0;0;0.95;0;0" keyTimes="0.0000;0.5187;0.5604;0.6521;1.0000" dur="6.0s" repeatCount="indefinite"/></circle><circle cx="309" cy="161" r="3.2" fill="#FFD24A" opacity="0"><animate attributeName="opacity" values="0;0;0.95;0;0" keyTimes="0.0000;0.5088;0.5504;0.6421;1.0000" dur="6.0s" repeatCount="indefinite"/></circle><circle cx="290" cy="130" r="2.2" fill="#FFD24A" opacity="0"><animate attributeName="opacity" values="0;0;0.95;0;0" keyTimes="0.0000;0.8055;0.8471;0.9388;1.0000" dur="6.0s" repeatCount="indefinite"/></circle><circle cx="298" cy="187" r="3.8" fill="#FFD24A" opacity="0"><animate attributeName="opacity" values="0;0;0.95;0;0" keyTimes="0.0000;0.3748;0.4165;0.5081;1.0000" dur="6.0s" repeatCount="indefinite"/></circle><circle cx="234" cy="168" r="2.3" fill="#FFD24A" opacity="0"><animate attributeName="opacity" values="0;0;0.95;0;0" keyTimes="0.0000;0.3708;0.4124;0.5041;1.0000" dur="6.0s" repeatCount="indefinite"/></circle><circle cx="203" cy="195" r="3.7" fill="#FFD24A" opacity="0"><animate attributeName="opacity" values="0;0;0.95;0;0" keyTimes="0.0000;0.4551;0.4968;0.5884;1.0000" dur="6.0s" repeatCount="indefinite"/></circle><circle cx="328" cy="194" r="2.9" fill="#FFD24A" opacity="0"><animate attributeName="opacity" values="0;0;0.95;0;0" keyTimes="0.0000;0.5216;0.5633;0.6550;1.0000" dur="6.0s" repeatCount="indefinite"/></circle><circle cx="260" cy="182" r="3.7" fill="#FFD24A" opacity="0"><animate attributeName="opacity" values="0;0;0.95;0;0" keyTimes="0.0000;0.4153;0.4570;0.5486;1.0000" dur="6.0s" repeatCount="indefinite"/></circle><circle cx="306" cy="188" r="4.1" fill="#FFD24A" opacity="0"><animate attributeName="opacity" values="0;0;0.95;0;0" keyTimes="0.0000;0.3832;0.4248;0.5165;1.0000" dur="6.0s" repeatCount="indefinite"/></circle><circle cx="188" cy="151" r="4.0" fill="#FFD24A" opacity="0"><animate attributeName="opacity" values="0;0;0.95;0;0" keyTimes="0.0000;0.6415;0.6832;0.7749;1.0000" dur="6.0s" repeatCount="indefinite"/></circle></g><defs><clipPath id="f86"><rect x="-512" y="256" width="1536" height="1024" transform="rotate(-3.275 256 256)"/></clipPath></defs><g clip-path="url(#f86)"><g transform="rotate(-3.275 256 256)"><g transform="translate(0,256)"><rect x="-512" y="0" width="1536" height="1024" fill="#12204A"/></g></g></g><g fill="#D5A507" transform="translate(34.00,126.11) scale(0.44400)"><path d="M35.7 305.27C27.86 297.99 20 290.67 18.23 289.02C12.94 284.07 7.26 277.76 2.59 271.63C1.3 269.94 1.3 269.94 0.67 259.67C0.04 249.4 0.04 249.4 3.21 243.43C17.85 215.93 25.31 198.26 26.9 187.33C27.45 183.58 26.65 184.36 34.25 180.13C39.92 176.97 39.91 176.98 39.91 175.49C39.91 173.85 39.02 172.61 37.83 172.6C37.11 172.6 37.81 175.22 31.69 149.81C26.64 128.87 26.11 126.2 26.67 124.15C27.12 122.49 32.62 119.37 41.13 115.95C46.53 113.78 47.49 113.3 48.58 112.26C50.67 110.26 58.97 108.69 71.24 107.99C77.19 107.64 74.98 104.81 89.29 131.15C96.15 143.79 105.73 161.29 110.57 170.04C115.41 178.79 120.75 188.62 122.44 191.88C129.48 205.52 134.23 213.21 136.29 214.34C139.72 216.22 170.18 212.83 229.23 204.01C250.02 200.91 306.75 190.88 330.23 186.17C332.66 185.68 332.66 185.68 333.54 183.12C338.5 168.63 350.1 151.3 360.17 143.32C372.8 133.3 397.13 121.34 414.41 116.63C435.84 110.79 444.66 109.17 464.81 107.34C479.81 105.98 511.76 102.62 512.05 102.38C512.08 102.36 511.65 99.49 511.1 96.01C510.1 89.68 510.1 89.68 506.87 88.58C502.65 87.13 501 86.26 499.45 84.67C498.18 83.37 498.18 83.37 487.88 83.75C459.05 84.82 451.08 85.73 441.9 89.01C435.4 91.33 435.45 91.31 428.8 91.97C362.81 98.45 214.12 125.11 126.21 146.21C111.13 149.83 109.91 149.82 109.35 146.09C108.62 141.18 110.96 140.04 130.7 135.68C199.78 120.43 262.82 107.4 294.63 101.81C336.98 94.36 431.41 81.22 452.54 79.84C455.13 79.67 462.05 79.18 467.91 78.75C473.77 78.33 480.74 77.91 483.41 77.82C496.02 77.41 495.76 77.44 495.55 76.49C495.44 76.03 495.28 74.08 495.18 72.17C495.01 68.69 495.01 68.69 493.75 68.38C493.06 68.2 491.24 67.34 489.71 66.47C482.4 62.32 482.87 62.48 475.05 61.23C461.69 59.09 454.17 57.41 449.82 55.59C448.42 55 444.91 53.47 442.02 52.19C431.61 47.57 418.28 42.66 392.8 34.08C364.87 24.67 339.59 17.5 311.76 11.09C299.95 8.37 299.99 8.38 290.21 6.6C279.38 4.63 274.04 3.36 274.55 2.87C275.14 2.3 289.73 0.65 297.88 0.23C311.16 -0.46 311.55 -0.4 341.15 6.74C389.7 18.46 402.15 22.04 437.97 34.58C462.99 43.33 472.02 47.05 486.52 54.55C489.7 56.2 494.13 58.47 496.36 59.59C498.58 60.72 500.74 61.86 501.14 62.13C501.87 62.62 501.89 62.62 504.82 61.38C519.4 55.23 529.43 55.03 540.79 60.69C546.35 63.46 548.17 64.78 548.98 66.6C549.58 67.97 555.31 67.94 575.92 66.45C598.39 64.83 598.39 64.83 607.34 62.29C614.29 60.32 614.14 60.33 639.56 58.79C703.41 54.93 756.26 53.13 806.36 53.13C858.12 53.13 977.54 55.09 996.82 56.26C1000.43 56.48 1001.17 58.14 998.71 60.49C995.29 63.76 991.43 63.94 948.73 62.85C873.08 60.91 856.08 60.83 788.97 62.17C722.22 63.5 694.67 64.8 620.01 70.11C613.86 70.55 607 70.98 604.77 71.07C591.89 71.59 573.5 73.35 567.47 74.64C561.97 75.82 561.32 75.9 556.36 76.04C551.11 76.19 551.11 76.19 550.94 78.75C550.84 80.16 550.57 81.77 550.34 82.33C550.01 83.11 549.99 83.38 550.24 83.47C550.42 83.53 553.42 84.55 556.9 85.72C560.39 86.9 566.25 88.96 569.93 90.32C573.61 91.67 576.74 92.77 576.89 92.77C580.14 92.77 614.7 111.79 625.81 119.69C630.93 123.34 630.93 123.34 636.87 124.75C672.02 133.12 689.95 139.38 701.29 147.24C705.18 149.93 705.18 149.93 720.24 155.31C752.95 166.98 765.35 173.35 790.99 191.66C799.5 197.73 816.67 214.97 819.64 220.42C823.42 227.36 820.75 237.21 814.42 239.63C811.9 240.59 812.26 240.2 804.25 250.61C795.46 262.02 780.6 276.24 776.87 276.82C775.66 277 373.53 299.94 373.25 299.84C371.87 299.33 359.32 284.34 355.46 278.59C344.66 262.51 338.75 252.16 334.39 241.69C332.21 236.45 330.36 232.1 330.28 232.02C329.97 231.71 213.68 249.73 187.97 254.08C164.08 258.12 163.13 258.35 158.5 261.43C151.54 266.06 146.73 270.44 129.11 288.18C98.73 318.77 105.03 315.29 77.25 316.85C63.91 317.61 52.31 318.29 51.48 318.37C49.96 318.52 49.96 318.52 35.7 305.27ZM65.16 294.35C83.73 291.12 97.51 273.39 100.91 248.38C101.38 244.97 101.37 230.17 100.9 226C99.56 213.99 98.8 211.61 94.02 204.55C76.64 178.83 40.43 194.92 31.18 232.47C22.2 268.91 38.7 298.96 65.16 294.35ZM426.51 238.42C508.82 228.76 585.47 223.14 652.64 221.81C692.24 221.03 690.56 222.48 677.71 200.11C656.08 162.43 653.86 160.82 626.75 163.14C557.73 169.02 495.94 179.34 427.86 196.36C408.78 201.13 406.7 201.91 404.56 205.13C401.84 209.25 402.31 210.47 412.79 226.27C421.54 239.45 421.09 239.05 426.51 238.42ZM771.34 224.12C780.47 221.3 789.76 206.88 786.96 199.86C783.31 190.7 764.16 174.62 748.38 167.48C741.64 164.43 718.63 155.97 707.64 152.51C687.74 146.23 651.12 143.59 643.34 147.88C640.63 149.37 642.43 150.74 649.96 152.91C662.3 156.47 670.56 163.87 679.03 178.98C687.23 193.6 699.29 212.89 702.16 215.99C707.1 221.32 707.66 221.47 727.59 222.62C764.71 224.76 768.81 224.9 771.34 224.12ZM591.15 114.24C591.15 114.08 588 112.11 584.82 110.28C578.3 106.55 556.35 96.34 545.07 91.8C543.08 91 540.82 89.97 540.03 89.52C537.82 88.26 535.19 88.74 534.96 90.44C534.72 92.22 534.14 101.92 534.27 102.04C534.33 102.09 541.55 103.67 550.3 105.55C559.05 107.43 571.61 110.17 578.21 111.63C589.8 114.19 591.15 114.47 591.15 114.24Z" fill-rule="evenodd"/><path d="M426.51 238.42C508.82 228.76 585.47 223.14 652.64 221.81C692.24 221.03 690.56 222.48 677.71 200.11C656.08 162.43 653.86 160.82 626.75 163.14C557.73 169.02 495.94 179.34 427.86 196.36C408.78 201.13 406.7 201.91 404.56 205.13C401.84 209.25 402.31 210.47 412.79 226.27C421.54 239.45 421.09 239.05 426.51 238.42ZM771.34 224.12C780.47 221.3 789.76 206.88 786.96 199.86C783.31 190.7 764.16 174.62 748.38 167.48C741.64 164.43 718.63 155.97 707.64 152.51C687.74 146.23 651.12 143.59 643.34 147.88C640.63 149.37 642.43 150.74 649.96 152.91C662.3 156.47 670.56 163.87 679.03 178.98C687.23 193.6 699.29 212.89 702.16 215.99C707.1 221.32 707.66 221.47 727.59 222.62C764.71 224.76 768.81 224.9 771.34 224.12Z" opacity="0.45"/></g><g transform="translate(256,256) rotate(-3.275)"><rect x="-614.4" y="0" width="1228.8" height="13" fill="#F5D76E"/></g><g transform="rotate(-3.275 256 256)"><defs><clipPath id="wc88"><circle cx="256" cy="256" r="249.00"/></clipPath></defs><g clip-path="url(#wc88)"><g fill="#FFFFFC" transform="translate(32.03,282.00) scale(0.42394)"><path d="M195.1 478.09C193.93 477.63 193.3 476.14 173.69 427.85C169.31 417.07 161.96 399.04 157.36 387.77C144.85 357.16 130.53 321.99 124.7 307.6C121.86 300.58 116.25 286.82 112.24 277.02C99.77 246.52 89.4 221.12 84.01 207.84C76.29 188.85 63.1 156.48 36.82 92.04C5.35 14.87 0 1.67 0 1.08C0 0.81 25.85 0.66 57.45 0.74L114.9 0.89L119.73 12.77C122.38 19.3 128.74 34.93 133.87 47.51C145.14 75.16 159.52 110.48 170.14 136.58C174.45 147.19 182.06 165.9 187.05 178.15C196.26 200.76 206.8 226.67 220.74 260.99C224.99 271.44 230.49 284.93 232.96 290.97C235.43 297.02 240.44 309.31 244.09 318.29C251.9 337.51 251.75 337.2 252.42 336.01C252.69 335.53 256.69 325.8 261.33 314.39C269.84 293.41 277.55 274.47 295.12 231.29C300.44 218.23 308.05 199.52 312.04 189.73C318.74 173.26 325.93 155.59 346.48 105.11C350.8 94.49 358.42 75.79 363.41 63.54C368.4 51.29 376.16 32.19 380.66 21.08L388.83 0.89L446.64 0.59C478.44 0.43 504.66 0.45 504.91 0.64C505.16 0.82 508.67 9.11 512.7 19.04C516.73 28.98 524.11 47.13 529.11 59.38C541.84 90.6 555.55 124.24 565.9 149.64C570.75 161.56 578.1 179.6 582.23 189.73C586.36 199.85 593.99 218.56 599.17 231.29C604.36 244.03 612.91 265.01 618.18 277.91C633.59 315.68 644.01 341.24 650.83 358.08C654.35 366.73 659.95 380.49 663.29 388.66C666.63 396.82 673.22 412.99 677.95 424.58C682.68 436.18 689.46 452.8 693.03 461.52C696.6 470.24 699.52 477.52 699.52 477.7C699.52 477.88 673.66 478.03 642.04 478.03L584.56 478.03L581.68 471.05C577.2 460.19 560.23 418.53 557.18 410.93C555.68 407.17 554.19 403.76 553.87 403.36C553.42 402.77 535.39 402.61 467.27 402.61C419.95 402.61 381.24 402.46 381.24 402.26C381.24 402.07 384.56 393.72 388.61 383.71C396.8 363.5 408.21 335.11 412.82 323.49L415.81 315.92L467.08 315.77L518.34 315.62L513.87 304.63C511.41 298.59 505.44 283.89 500.59 271.97C495.75 260.05 487.88 240.68 483.1 228.92C478.32 217.16 470.83 198.72 466.45 187.95C450.59 148.87 447.82 142.25 447.34 142.09C447.07 142 445.2 146.13 443.18 151.28C441.16 156.42 434.67 172.52 428.75 187.05C422.83 201.59 414.81 221.36 410.93 231C407.04 240.63 399.56 259.07 394.3 271.97C376.24 316.27 366.82 339.41 358.64 359.56C345.14 392.83 338.8 408.42 330.37 429.04C311.03 476.38 310.36 477.95 309.1 478.28C307.23 478.79 196.4 478.6 195.1 478.09ZM881.95 474.91C879.81 472 876.03 466.65 856.48 438.84C852.23 432.79 840.49 416.09 830.38 401.72C820.26 387.35 807.21 368.78 801.36 360.45C784.84 336.91 776.14 324.62 775.21 323.48C774.4 322.5 772.01 322.45 736.79 322.59L699.23 322.74L698.93 370.83L698.63 418.92L690.21 398.15C685.57 386.72 677.74 367.49 672.81 355.4C667.87 343.32 660.52 325.28 656.47 315.32C652.42 305.36 644.8 286.65 639.54 273.75C634.28 260.85 625.94 240.41 621.01 228.33C616.08 216.24 608.68 198.2 604.57 188.24L597.09 170.13L596.94 85.03L596.79 -0.07L711.55 0.16C835.48 0.41 832.04 0.32 850.36 3.58C934.1 18.49 989.12 78.21 991.5 156.77C993.56 225.09 954.38 283.51 889.7 308.51C886.35 309.81 883.62 311.05 883.61 311.28C883.61 311.67 888.25 318.33 910.61 350.06C915.44 356.92 922.68 367.21 926.69 372.92C930.71 378.64 938.14 389.19 943.21 396.38C948.28 403.56 955.61 413.98 959.5 419.54C963.39 425.09 972.96 438.72 980.78 449.82C999.57 476.5 1000 477.12 1000 477.61C1000 477.84 973.95 478.03 942.12 478.03C884.24 478.03 884.24 478.03 881.95 474.91ZM812.44 228.62C858.16 224.16 885.99 198.77 885.99 161.52C885.99 130.34 865.44 106.28 831.53 97.74C817.42 94.19 818.24 94.23 756.09 93.98L698.93 93.75L698.93 161.48L698.93 229.22L752.61 229.22C784.27 229.22 808.81 228.97 812.44 228.62Z" fill-rule="evenodd"/><path d="M192.83 474.62 L311.60 474.62 L252.04 614.97 L252.04 614.97 ZM582.75 474.62 L697.88 474.62 L780.63 678.62 L666.26 678.62 ZM887.32 474.62 L997.18 474.62 L1138.70 678.62 L1067.96 678.62 Z"/></g></g></g></g></svg>